<svg width="51" height="15" viewBox="0 0 51 15" fill="none" xmlns="http://www.w3.org/2000/svg">
<path d="M16.0781 3.04297H16.2188C16.6094 3.04297 17.3281 3.09375 18.375 3.19531L19.6758 3.23047H19.7109C20.3047 3.23047 20.7383 3.20312 21.0117 3.14844C21.1055 3.5 21.1523 3.92188 21.1523 4.41406V4.47266C21.1523 4.68359 21.1055 4.78906 21.0117 4.78906L20.9648 4.83594C20.9648 4.86719 21.0117 4.90234 21.1055 4.94141H21.1289V4.98828C21.082 5.05859 20.9453 5.10156 20.7188 5.11719C20.5312 5.11719 20.4375 5.05469 20.4375 4.92969L20.4258 4.64844L20.4375 4.10938C20.4375 4.03906 20.207 4.00391 19.7461 4.00391H19.043L18.6445 3.99219C18.5742 3.99219 18.5195 4.63281 18.4805 5.91406C18.4336 6.96875 18.4102 7.68359 18.4102 8.05859V8.41016C18.4102 8.51172 18.375 8.61719 18.3047 8.72656V8.73828C18.3672 8.73828 18.4023 8.82031 18.4102 8.98438L18.375 9.16016H18.3516V9.14844V9.07812L18.3281 9.99219C18.3281 10.0859 18.7148 10.168 19.4883 10.2383C19.6367 10.293 19.7109 10.3672 19.7109 10.4609C19.6484 10.6016 19.6172 10.7773 19.6172 10.9883C19.5938 10.9883 19.582 11.0273 19.582 11.1055L19.5352 11.1523C18.6992 11.1055 17.9297 11.082 17.2266 11.082H16.957C16.5977 11.082 16.3203 11.0977 16.125 11.1289C16.1094 11.0977 16.0781 10.8398 16.0312 10.3555H16.043L16.207 10.4258H16.2188L16.2656 10.3906V10.3789C16.25 10.3398 16.2109 10.3203 16.1484 10.3203L16.1133 10.2852V10.2617C16.1133 10.2383 16.2852 10.1953 16.6289 10.1328C16.6289 10.1094 16.9023 10.0938 17.4492 10.0859C17.5117 10.0859 17.5547 9.83203 17.5781 9.32422L17.6367 8.57422C17.5664 7.92578 17.5312 7.52344 17.5312 7.36719L17.4023 5.04688V4.74219L17.4258 4.30859L17.4023 4.15625L17.4492 4.0625V4.00391C17.4492 3.93359 17.1406 3.89453 16.5234 3.88672C16.0781 3.91016 15.8555 3.94141 15.8555 3.98047C15.7852 4.16016 15.7148 4.42969 15.6445 4.78906L15.5625 4.85938L15.5391 4.84766H15.457C15.4258 4.87891 15.3906 4.89453 15.3516 4.89453L15.0234 4.91797C15.0234 4.76953 15.0234 4.61719 15.0234 4.46094C15.0312 4.29688 15.0352 4.17188 15.0352 4.08594C15.043 4 15.0469 3.9375 15.0469 3.89844L14.9883 3.45312C14.9883 3.35938 15.0469 3.30469 15.1641 3.28906L15.3047 3.14844H15.3633L15.4688 3.28906H15.4922C15.625 3.125 15.8203 3.04297 16.0781 3.04297ZM18.7031 3.48828L18.668 3.52344C18.668 3.5625 18.793 3.58984 19.043 3.60547C19.1758 3.58984 19.2422 3.57422 19.2422 3.55859V3.53516C19.1484 3.50391 18.9805 3.48828 18.7383 3.48828H18.7031ZM20.2383 3.81641H20.1211V3.82812C20.1367 3.86719 20.168 3.88672 20.2148 3.88672H20.2852V3.86328L20.2383 3.81641ZM20.5312 3.81641H20.4727V3.86328H20.5078L20.5312 3.82812V3.81641ZM18 4.10938V4.12109L18.0352 4.15625C18.1133 4.15625 18.1914 4.10547 18.2695 4.00391V3.98047L18.2109 3.96875C18.1406 3.96875 18.0703 4.01562 18 4.10938ZM15.5156 4.00391L15.457 4.0625V4.15625L15.4922 4.20312H15.5156L15.5742 4.14453V4.0625L15.5273 4.00391H15.5156ZM17.6367 4.09766V4.15625C17.6602 4.27344 17.6836 4.33203 17.707 4.33203C17.7461 4.33203 17.7773 4.28906 17.8008 4.20312V4.12109C17.8008 4.07422 17.7734 4.03516 17.7188 4.00391C17.6641 4.00391 17.6367 4.03516 17.6367 4.09766ZM20.7188 4.0625H20.6953L20.6602 4.21484L20.7188 4.23828L20.7539 4.20312V4.10938L20.7188 4.0625ZM18.1172 4.48438H18.1055L18.082 4.625V4.8125H18.1055L18.1172 4.64844V4.48438ZM20.6484 4.8125L20.625 4.83594V4.89453H20.6484L20.6953 4.84766V4.83594L20.6602 4.8125H20.6484ZM18.2227 5.53906H18.1992L18.1758 5.96094V6.24219C18.1758 6.4375 18.1953 6.53516 18.2344 6.53516H18.2578L18.293 6.38281L18.2227 5.53906ZM17.7188 5.89062L17.6953 5.92578L17.707 5.94922H17.7188V5.89062ZM17.8477 6.76953H17.8125C17.7656 6.96484 17.7422 7.17578 17.7422 7.40234V7.54297C17.7422 7.91797 17.7773 8.10547 17.8477 8.10547C17.8711 8.10547 17.8867 8.04297 17.8945 7.91797L17.8242 7.36719L17.8828 7.10938L17.8477 6.76953ZM17.9414 8.41016H17.8945V8.60938L18 8.78516V8.72656C18 8.51562 17.9805 8.41016 17.9414 8.41016ZM16.8398 10.2617L16.7812 10.3203V10.3789C16.7812 10.3945 16.7969 10.4023 16.8281 10.4023L17.0742 10.3789V10.3438C17.043 10.2891 16.9844 10.2617 16.8984 10.2617H16.8398ZM16.5586 10.3086H16.5234L16.5 10.3438L16.5352 10.3789H16.582L16.6055 10.3438L16.5586 10.3086ZM19.043 10.4727C19.1602 10.5039 19.2969 10.5195 19.4531 10.5195L19.4766 10.4961V10.4609L19.3594 10.4258H19.125C19.0703 10.4336 19.043 10.4492 19.043 10.4727ZM18.8203 10.625L18.7734 10.6719C18.7969 10.7266 18.8359 10.7539 18.8906 10.7539H18.9609C19.0078 10.7539 19.0391 10.7422 19.0547 10.7188V10.6953C19.0547 10.6641 19 10.6406 18.8906 10.625H18.8203ZM17.6953 10.6484L17.5898 10.6719V10.7188L17.6953 10.7305H17.8594C17.9062 10.7305 17.9336 10.7148 17.9414 10.6836C17.9023 10.6602 17.8438 10.6484 17.7656 10.6484H17.6953ZM16.875 10.6953L16.8164 10.7188V10.7539L17.0039 10.7891L17.1562 10.7539V10.7422L17.1094 10.6953H16.875ZM16.3477 10.918V10.9414L16.3828 10.9648H16.4062C16.4609 10.9336 16.4883 10.8789 16.4883 10.8008V10.7891L16.4531 10.7539H16.4414C16.3789 10.793 16.3477 10.8477 16.3477 10.918ZM19.4414 10.7891L19.3945 10.8359V10.8711L19.4414 10.8945L19.4766 10.8477V10.8125L19.4414 10.7891ZM21.8789 4.64844L23.332 4.61328C23.457 4.61328 23.7188 4.66797 24.1172 4.77734C24.5703 5.20703 24.8398 5.54297 24.9258 5.78516C25.0977 5.96484 25.2344 6.32031 25.3359 6.85156C25.4609 6.97656 25.5234 7.25391 25.5234 7.68359L25.5352 7.97656L25.4883 9.13672C25.4883 9.37109 25.6328 9.66016 25.9219 10.0039C26.1875 10.2617 26.3594 10.3906 26.4375 10.3906V10.4141C26.4375 10.5078 26.3008 10.6562 26.0273 10.8594C25.8242 11.0625 25.6953 11.1641 25.6406 11.1641H25.6289C25.5039 11.1484 25.1875 10.918 24.6797 10.4727C23.7578 10.832 23.293 11.0156 23.2852 11.0234C22.9805 11.1172 22.6406 11.1641 22.2656 11.1641H22.207C21.7852 11.0938 21.4258 10.9297 21.1289 10.6719C21.0742 10.625 20.9609 10.4297 20.7891 10.0859C20.6484 9.91406 20.5781 9.70312 20.5781 9.45312V9.11328C20.5781 8.89453 20.6367 8.69141 20.7539 8.50391C20.8555 8.18359 21.0312 7.87891 21.2812 7.58984C21.4062 7.44141 21.5312 7.34766 21.6562 7.30859C22.0625 7.08984 22.4648 6.98047 22.8633 6.98047L23.3906 6.96875H23.4609C23.7578 6.96875 23.9688 7.01172 24.0938 7.09766H24.1641C24.2031 7.09766 24.2227 7.08203 24.2227 7.05078C24.1367 6.68359 23.9961 6.33203 23.8008 5.99609C23.6289 5.70703 23.3086 5.5625 22.8398 5.5625L22.3594 5.49219C21.9453 5.57812 21.7383 5.66406 21.7383 5.75C21.5742 5.96094 21.4766 6.22266 21.4453 6.53516C21.4297 6.57422 21.2891 6.59375 21.0234 6.59375L20.9531 6.61719C20.9219 6.61719 20.8828 6.68359 20.8359 6.81641C20.6172 6.78516 20.5078 6.73828 20.5078 6.67578C20.5234 6.62891 20.5508 6.34766 20.5898 5.83203C20.7148 5.47266 21.0117 5.14062 21.4805 4.83594C21.6992 4.71094 21.832 4.64844 21.8789 4.64844ZM23.1914 4.84766L23.168 4.88281L23.2031 4.92969H23.2734L23.2852 4.90625L23.25 4.84766H23.1914ZM24.082 4.94141H24.0586V4.96484C24.1211 5.02734 24.1758 5.05859 24.2227 5.05859H24.2344V5.03516C24.1719 4.97266 24.1211 4.94141 24.082 4.94141ZM22.207 5V5.03516C22.2148 5.05859 22.2539 5.07031 22.3242 5.07031C22.3945 5.07031 22.4922 5.04688 22.6172 5V4.95312H22.5703C22.3984 4.95312 22.2773 4.96875 22.207 5ZM21.1523 5.375V5.39844H21.1641C21.2344 5.39844 21.3398 5.32422 21.4805 5.17578V5.14062H21.4688C21.3906 5.14062 21.2852 5.21875 21.1523 5.375ZM22.7812 5.29297L22.7227 5.33984L22.7578 5.39844H22.9102L22.9453 5.36328L22.875 5.29297H22.7812ZM21.0586 6.24219L21.0234 6.26562V6.44141H21.0352C21.0664 6.43359 21.082 6.40625 21.082 6.35938V6.26562L21.0586 6.24219ZM25.3125 7.17969H25.3008V7.20312C25.3164 7.26562 25.332 7.29688 25.3477 7.29688L25.3594 7.23828C25.3438 7.19922 25.3281 7.17969 25.3125 7.17969ZM25.043 7.58984L25.0078 7.61328V7.64844C25.0391 7.76562 25.0703 7.82422 25.1016 7.82422H25.125C25.125 7.72266 25.1016 7.64453 25.0547 7.58984H25.043ZM21.6094 7.66016L21.4805 7.71875V7.77734H21.5039C21.5586 7.77734 21.5977 7.74609 21.6211 7.68359V7.66016H21.6094ZM21.4805 8.77344C21.5352 9.24219 21.6016 9.47656 21.6797 9.47656L21.7969 9.62891V9.64062L21.6914 9.62891V9.66406C21.8398 9.86719 22.1445 10.0547 22.6055 10.2266C22.6602 10.2578 22.7383 10.2812 22.8398 10.2969C22.9805 10.2969 23.5195 10.0664 24.457 9.60547C24.5195 9.56641 24.5508 9.52344 24.5508 9.47656V9.41797C24.4805 9.09766 24.4219 8.72266 24.375 8.29297L24.3516 8.28125C24.3516 8.19531 24.2656 8.125 24.0938 8.07031C23.5156 7.90625 23.1211 7.82422 22.9102 7.82422C22.3164 7.95703 21.9102 8.15625 21.6914 8.42188C21.5508 8.5625 21.4805 8.67969 21.4805 8.77344ZM25.0078 8.01172L24.9727 7.98828V8.02344H25.0078V8.01172ZM25.0547 8.23438H24.9844V8.28125L25.0195 8.31641L25.0547 8.28125V8.23438ZM24.6797 8.52734L24.6445 8.5625L24.6797 8.60938L24.7266 8.59766V8.5625L24.6914 8.52734H24.6797ZM25.1016 8.5625H25.0664V8.57422C25.082 8.87109 25.1133 9.01953 25.1602 9.01953L25.1836 8.99609V8.97266C25.1836 8.80859 25.1562 8.67188 25.1016 8.5625ZM24.6445 8.9375L24.6328 8.94922V9.01953L24.668 9.06641H24.6797L24.7266 9.01953V8.94922L24.6914 8.9375H24.6445ZM25.6406 10.0391H25.6055V10.1094C25.6367 10.2109 25.6719 10.2617 25.7109 10.2617H25.7461V10.2266C25.7148 10.1016 25.6797 10.0391 25.6406 10.0391ZM21.3281 10.0742L21.3047 10.0977V10.1094L21.3281 10.1328H21.3867V10.1094L21.3516 10.0742H21.3281ZM25.2773 10.2266L25.2422 10.2617C25.2656 10.3164 25.2969 10.3516 25.3359 10.3672H25.3477L25.3945 10.3203V10.2969L25.3359 10.2266H25.2773ZM23.5781 10.3906V10.4141H23.625C23.7344 10.4141 23.8789 10.3672 24.0586 10.2734V10.2617H24.0117C23.7461 10.293 23.6016 10.3359 23.5781 10.3906ZM25.5352 10.4258L25.5117 10.4727V10.4961L25.5586 10.543H25.6055L25.6406 10.5195V10.4961L25.582 10.4258H25.5352ZM22.6406 10.5195L22.6055 10.5547C22.6211 10.5938 22.6523 10.6133 22.6992 10.6133C22.7852 10.5977 22.8281 10.5781 22.8281 10.5547V10.543L22.793 10.5195H22.6406ZM21.3633 10.6836L21.3281 10.7305C21.3594 10.8008 21.5547 10.8906 21.9141 11C22.0312 11.0547 22.1875 11.082 22.3828 11.082V11.0703C22.3828 11.0469 22.2344 11.0039 21.9375 10.9414C21.7656 10.8945 21.5859 10.8086 21.3984 10.6836H21.3633ZM26.8945 2.51562L26.9062 2.52734V2.53906L26.8711 2.57422C26.8789 2.60547 26.9102 2.62109 26.9648 2.62109H26.9883L27.0117 2.58594L26.9648 2.52734L26.9883 2.51562H27.4453C27.7188 2.51562 27.8555 2.59766 27.8555 2.76172L27.8906 2.80859H27.9258L27.9609 2.78516V2.76172L27.9258 2.66797L27.9375 2.64453H27.9609C28.1562 2.64453 28.2539 2.85547 28.2539 3.27734C28.2539 4.22266 28.3086 4.92188 28.418 5.375H28.4648L29.1914 5.33984C30.082 5.39453 30.5273 5.47266 30.5273 5.57422C30.5586 5.57422 30.7109 5.69531 30.9844 5.9375C31.4297 6.3125 31.7148 6.67969 31.8398 7.03906C31.9805 7.19531 32.0508 7.62109 32.0508 8.31641L32.0625 8.66797C31.8281 9.15234 31.7109 9.44141 31.7109 9.53516C31.7109 9.81641 31.3984 10.1875 30.7734 10.6484C30.6875 10.8438 30.2109 10.9453 29.3438 10.9531C28.9609 10.8828 28.6953 10.8477 28.5469 10.8477H28.2773C28.1445 10.8477 28.0781 10.9023 28.0781 11.0117L27.832 11.3281C27.6992 11.3672 27.5938 11.3867 27.5156 11.3867C27.4219 11.3867 27.2305 11.3125 26.9414 11.1641V11.1289C26.9961 11.0664 27.0234 11.0039 27.0234 10.9414V10.8945L26.9883 10.6836L27.0117 10.5195V10.3086L26.9648 10.0742C27.0586 9.56641 27.1055 9.22266 27.1055 9.04297L27.1406 8.92578L27.1172 8.77344L27.2227 7.94141V7.89453C27.2227 7.69141 27.1719 7.05859 27.0703 5.99609V5.97266L27.0469 5.96094L27.0703 5.87891V5.83203C27.1016 5.35547 27.1172 4.91797 27.1172 4.51953V3.64062L27.1055 3.57031H27.082C26.7852 3.72656 26.5703 3.80469 26.4375 3.80469C26.3438 3.80469 26.2852 3.59375 26.2617 3.17188C26.2617 3.14063 26.2852 3.09766 26.332 3.04297V3.00781H26.3086L26.2734 3.01953L26.2617 3.00781C26.2617 2.71094 26.293 2.5625 26.3555 2.5625C26.4414 2.53125 26.6211 2.51562 26.8945 2.51562ZM27.8672 2.52734H27.9258V2.5625L27.8672 2.57422L27.8555 2.5625V2.53906L27.8672 2.52734ZM27.2227 2.71484H27.1875V2.72656H27.2227V2.71484ZM27.4453 2.71484L27.4102 2.75V2.76172H27.4922V2.71484H27.4453ZM26.4844 2.75H26.3555V2.76172C26.3555 2.78516 26.4375 2.81641 26.6016 2.85547C26.7656 2.84766 26.8477 2.82812 26.8477 2.79688V2.78516C26.7539 2.76172 26.6328 2.75 26.4844 2.75ZM27.5977 2.90234L27.5391 2.96094V3.14844L27.5742 3.17188C27.6367 3.13281 27.668 3.07031 27.668 2.98438C27.668 2.9375 27.6562 2.91016 27.6328 2.90234H27.5977ZM27.1523 3.125L27.1992 3.16016H27.3281L27.375 3.10156V3.04297L27.3281 3.00781C27.2109 3.00781 27.1523 3.04688 27.1523 3.125ZM26.5547 3.01953H26.5312L26.5195 3.08984V3.19531C26.5195 3.22656 26.5586 3.24609 26.6367 3.25391C26.7461 3.25391 26.8086 3.21875 26.8242 3.14844C26.7148 3.0625 26.625 3.01953 26.5547 3.01953ZM26.9883 3.05469H26.8945V3.07812L26.9297 3.125H27.0234V3.08984L26.9883 3.05469ZM27.5508 4.00391C27.5742 4.17578 27.6055 4.26172 27.6445 4.26172H27.6562V4.23828C27.6406 4.05859 27.6133 3.96875 27.5742 3.96875C27.5586 3.96875 27.5508 3.98047 27.5508 4.00391ZM29.918 5.57422H29.8242V5.59766C29.8477 5.64453 29.8945 5.66797 29.9648 5.66797H29.9766V5.63281L29.918 5.57422ZM28.9688 5.70312L29.0039 5.73828H29.0742L29.1797 5.70312V5.64453L29.1211 5.63281C29.0586 5.63281 29.0078 5.65625 28.9688 5.70312ZM28.4414 6.04297V6.08984H28.4648C28.6602 6.05859 28.7578 6.02734 28.7578 5.99609V5.96094H28.7344C28.6484 5.96094 28.5508 5.98828 28.4414 6.04297ZM30.2812 5.99609H30.2344C30.2344 6.07422 30.3477 6.14453 30.5742 6.20703C30.7305 6.41797 30.8438 6.52344 30.9141 6.52344V6.51172C30.8672 6.34766 30.7969 6.23438 30.7031 6.17188C30.4922 6.05469 30.3516 5.99609 30.2812 5.99609ZM28.1016 8.32812C28.1016 8.51562 28.1094 8.69531 28.125 8.86719L28.1133 9.16016V9.6875C28.1133 9.78906 28.2969 9.89453 28.6641 10.0039C28.75 10.0352 28.8984 10.0508 29.1094 10.0508C29.5 10.0508 29.9883 9.92578 30.5742 9.67578C30.7617 9.52734 30.9727 9.21484 31.207 8.73828L31.2773 8.44531C31.2773 8.04688 31.1562 7.62891 30.9141 7.19141C30.8594 6.94922 30.7305 6.73438 30.5273 6.54688L30 6.17188C29.4531 6.17188 28.8867 6.28906 28.3008 6.52344C28.2383 6.52344 28.1953 6.80078 28.1719 7.35547C28.125 7.62891 28.1016 7.95312 28.1016 8.32812ZM31.7344 7.10938H31.7109V7.15625C31.7109 7.21094 31.7383 7.23828 31.793 7.23828H31.8047V7.22656C31.8047 7.17188 31.7812 7.13281 31.7344 7.10938ZM31.3359 7.41406H31.3008V7.44922L31.3359 7.47266H31.3594V7.44922L31.3359 7.41406ZM31.418 9.875V9.88672C31.5273 9.88672 31.6055 9.71094 31.6523 9.35938H31.5703C31.5391 9.35938 31.4961 9.50391 31.4414 9.79297C31.4258 9.79297 31.418 9.82031 31.418 9.875ZM31.125 9.67578V9.6875L31.1602 9.71094C31.2461 9.67188 31.2891 9.62891 31.2891 9.58203L31.2539 9.54688H31.2188C31.1562 9.58594 31.125 9.62891 31.125 9.67578ZM30.293 9.95703V9.99219L30.3281 10.0039H30.3516C30.4531 10.0039 30.5039 9.98438 30.5039 9.94531L30.4688 9.89844H30.3984C30.3438 9.89844 30.3086 9.91797 30.293 9.95703ZM28.207 9.94531V9.95703C28.2148 9.98828 28.2422 10.0039 28.2891 10.0039V9.99219C28.2812 9.96094 28.2539 9.94531 28.207 9.94531ZM27.7734 9.95703L27.75 9.99219V10.0625L27.7734 10.0977H27.7852L27.8203 10.0625V10.0508C27.8203 9.99609 27.8047 9.96484 27.7734 9.95703ZM30.6562 10.2852V10.3203C30.9062 10.25 31.043 10.1914 31.0664 10.1445V10.1211C30.9961 10.1211 30.8594 10.1758 30.6562 10.2852ZM27.1055 10.2617H27.0703V10.3086L27.1055 10.3203H27.1172V10.3086L27.1055 10.2617ZM30.0938 10.3438L30.0703 10.3672V10.4023H30.1758L30.2109 10.3555V10.3438H30.0938ZM29.2266 10.543L29.25 10.5547H29.3672C29.5547 10.5391 29.6602 10.5117 29.6836 10.4727V10.4375H29.6484C29.4531 10.4375 29.3125 10.4727 29.2266 10.543ZM28.2656 10.5078H28.1836V10.5312C28.1836 10.5625 28.25 10.5859 28.3828 10.6016H28.4062V10.5547C28.4062 10.5391 28.3594 10.5234 28.2656 10.5078ZM27.6328 10.7188L27.668 10.7305C27.7383 10.6914 27.7734 10.6562 27.7734 10.625H27.7148C27.6602 10.625 27.6328 10.6562 27.6328 10.7188ZM27.3984 10.6953L27.3398 10.7188V10.7539L27.3984 10.8008H27.4453V10.7539L27.3984 10.6953ZM30.2109 10.8125H30.1758V10.8477H30.2109V10.8125ZM34.7109 3.80469L34.5586 3.59375C34.793 3.57031 34.9492 3.55859 35.0273 3.55859C35.9258 3.51172 36.4219 3.47266 36.5156 3.44141L37.1719 3.41797C37.2969 3.42578 37.3594 3.46094 37.3594 3.52344C37.3359 3.55469 37.3242 3.60547 37.3242 3.67578C37.3711 3.73047 37.3945 3.76562 37.3945 3.78125V4.14453L37.4062 4.15625C37.4062 4.32812 37.2344 4.62109 36.8906 5.03516C36.75 5.23047 36.625 5.45703 36.5156 5.71484C36.4844 5.74609 36.3867 5.92578 36.2227 6.25391C35.7852 6.92578 35.3906 7.60547 35.0391 8.29297C35.0078 8.30859 34.9062 8.46484 34.7344 8.76172C34.5469 8.98828 34.3047 9.36719 34.0078 9.89844V9.91016C34.0234 9.94922 34.0703 9.96875 34.1484 9.96875H34.1602L35.2852 9.89844C35.6445 9.89844 36.1172 9.93359 36.7031 10.0039C36.7734 10.0039 36.8477 9.76562 36.9258 9.28906L36.9961 9.37109C37.0273 9.29297 37.0781 9.23438 37.1484 9.19531C37.5703 9.26562 37.7695 9.26953 37.7461 9.20703C37.8242 9.21484 37.8906 9.76953 37.9453 10.8711C37.8438 10.8633 36.9883 10.8789 35.3789 10.918L33.7148 11.0586C33.6211 11.1055 33.5156 11.1289 33.3984 11.1289L33.1523 11.0352L32.8711 11.0703H32.8477C32.6367 11.0703 32.5156 11.0312 32.4844 10.9531L32.5078 10.8945V10.7539C32.5234 10.4727 32.8867 9.87109 33.5977 8.94922C33.6055 8.91016 33.8555 8.52344 34.3477 7.78906C34.9102 6.83594 35.4609 5.98438 36 5.23438C36.0703 5.13281 36.2422 4.92578 36.5156 4.61328L36.5273 4.55469C36.4883 4.53125 36.4062 4.51953 36.2812 4.51953H36.2578C35.9141 4.51953 35.3242 4.58594 34.4883 4.71875H34.4414L33.832 4.67188L33.7383 4.87109L33.8203 5.53906C33.8203 5.625 33.5625 5.69141 33.0469 5.73828C32.9453 5.52734 32.8945 5.33594 32.8945 5.16406V4.90625V4.74219L32.918 3.99219L32.8477 3.80469C32.8711 3.80469 32.9258 3.73828 33.0117 3.60547C33.0508 3.56641 33.1914 3.61328 33.4336 3.74609C33.3711 3.68359 33.3398 3.64453 33.3398 3.62891V3.60547L33.3516 3.59375L33.5391 3.73438C33.8516 3.70313 34.1211 3.66797 34.3477 3.62891L34.2656 3.65234V3.67578H34.3242C34.5977 3.81641 34.7344 3.86328 34.7344 3.81641L34.7109 3.80469ZM34.9219 3.73438C34.9219 3.76562 35.293 3.78906 36.0352 3.80469L36.3047 3.85156C36.375 3.82031 36.4453 3.80469 36.5156 3.80469H36.7266L37.0312 3.58203V3.55859C36.8906 3.60547 36.7461 3.62891 36.5977 3.62891C35.4805 3.65234 34.9219 3.6875 34.9219 3.73438ZM35.9531 5.83203V5.89062C36.0234 5.89062 36.2109 5.66797 36.5156 5.22266L37.0078 4.57812V4.55469H36.9609C36.8203 4.55469 36.6445 4.69922 36.4336 4.98828C36.3477 5.17578 36.1875 5.45703 35.9531 5.83203ZM36.7852 3.98047L36.6914 4.00391L35.918 3.99219C35.8008 4.05469 35.6641 4.10547 35.5078 4.14453V4.15625L35.6719 4.19141H35.7539L36.3516 4.08594C36.5312 4.07812 36.6797 4.05078 36.7969 4.00391V3.98047H36.7852ZM33.5273 4.03906H33.5156L33.5273 4.28516H33.5508C33.6133 4.22266 33.6602 4.19141 33.6914 4.19141L33.9844 4.20312H34.1836V4.16797C34.1836 4.12109 33.9648 4.07812 33.5273 4.03906ZM34.7812 8.17578V8.1875C34.8594 8.1875 34.9492 8.03516 35.0508 7.73047C35.1445 7.62891 35.1914 7.55469 35.1914 7.50781V7.48438C35.0742 7.48438 34.9375 7.71484 34.7812 8.17578ZM37.5703 10.707C37.5938 10.7773 37.6367 10.8125 37.6992 10.8125C37.7383 10.8125 37.7578 10.8008 37.7578 10.7773L37.7227 10.3438H37.6875C37.6406 10.3438 37.6016 10.4648 37.5703 10.707ZM34.7461 10.7305V10.7539L34.9219 10.7656H35.0039C35.2773 10.7656 35.4766 10.7539 35.6016 10.7305V10.6953L35.5312 10.6836H35.5195C35.1602 10.6836 34.9023 10.6992 34.7461 10.7305ZM34.0312 10.8125V10.8477L34.0547 10.8711H34.0781C34.2812 10.8711 34.4023 10.8398 34.4414 10.7773C34.4414 10.7695 34.375 10.7578 34.2422 10.7422C34.1016 10.7578 34.0312 10.7812 34.0312 10.8125ZM33.7148 9.67578L33.6914 9.73438V9.75781C33.8633 9.59375 34 9.41406 34.1016 9.21875V9.18359C33.9766 9.30078 33.8477 9.46484 33.7148 9.67578ZM36.1523 3.86328L35.5781 3.88672H35.5547V3.89844H36.375L36.3984 3.88672L36.1523 3.86328ZM34.1484 4.46094V4.51953H34.1602L34.5586 4.46094V4.44922L34.5234 4.41406H34.3477C34.2773 4.41406 34.2109 4.42969 34.1484 4.46094ZM32.707 10.8477L32.7422 10.8945H32.9297L32.9766 10.8477V10.8359L32.9297 10.7773H32.8477C32.7617 10.7773 32.7148 10.8008 32.707 10.8477ZM34.0312 3.89844L33.9961 3.93359V3.96875L34.1484 3.98047C34.2422 3.98047 34.2891 3.96484 34.2891 3.93359V3.92188L34.2188 3.89844H34.0312ZM33.0117 5.39844L33.0352 5.44531H33.0586C33.1133 5.41406 33.1562 5.35938 33.1875 5.28125L33.1641 5.24609H33.1172C33.0781 5.26172 33.043 5.3125 33.0117 5.39844ZM33.9375 10.1797H34.2305L34.2656 10.1445L34.2305 10.1211H34.1602C34.0117 10.1211 33.9375 10.1406 33.9375 10.1797ZM36.9844 10.6016L36.9141 10.6602L36.9375 10.6953H37.0078C37.0625 10.6953 37.0938 10.6797 37.1016 10.6484L37.0547 10.6016H36.9844ZM35.7422 10.0273L35.6953 10.0742C35.6953 10.0977 35.7109 10.1094 35.7422 10.1094C35.8359 10.0938 35.8828 10.0742 35.8828 10.0508L35.8711 10.0273H35.7422ZM37.0312 9.83984L36.9844 9.89844V9.94531L37.0078 9.96875H37.0195C37.0586 9.95312 37.0781 9.92188 37.0781 9.875V9.83984H37.0312ZM33.8438 10.8477L33.8086 10.8945V10.9414H33.9258L33.9609 10.8945L33.9375 10.8477H33.8438ZM36.6914 10.3906H36.5977V10.4023C36.5977 10.4258 36.6328 10.4453 36.7031 10.4609L36.7266 10.4375V10.4258L36.6914 10.3906ZM35.0859 3.94531H35.0273V3.96875C35.0352 3.99219 35.0664 4.00391 35.1211 4.00391V3.98047L35.0859 3.94531ZM34.5586 3.59375H34.5469L34.3594 3.62891C34.4297 3.60547 34.4961 3.59375 34.5586 3.59375ZM33.0469 4.69531H33.0117V4.73047L33.0469 4.75391H33.082V4.73047L33.0469 4.69531ZM36.1406 10.6602H36.0938V10.6953H36.1406V10.6602ZM41.0977 5.11719C41.4258 5.11719 41.8242 5.25781 42.293 5.53906C42.6914 5.83594 42.8906 6.03906 42.8906 6.14844C43.2031 6.80469 43.3594 7.19922 43.3594 7.33203L43.3711 7.42578C43.2539 7.69922 43.1953 7.88672 43.1953 7.98828L43.125 8H42.1289C42.0352 8 41.9219 8.01172 41.7891 8.03516C40.6641 7.94141 39.875 7.89453 39.4219 7.89453H39.1758C39.082 8.03516 39.0352 8.13672 39.0352 8.19922C39.0898 8.28516 39.1172 8.42188 39.1172 8.60938C39.1172 8.90625 39.1641 9.08203 39.2578 9.13672L39.2695 9.19531V9.20703L39.1992 9.17188V9.20703L39.3047 9.32422C39.3047 9.42578 39.375 9.55469 39.5156 9.71094C39.7734 10.1641 40.0547 10.4453 40.3594 10.5547C40.6172 10.6406 40.9102 10.6836 41.2383 10.6836C41.293 10.6836 41.4062 10.6328 41.5781 10.5312C41.7188 10.5 42.0156 10.2461 42.4688 9.76953V9.73438C42.4688 9.71875 42.4141 9.70312 42.3047 9.6875L42.2812 9.62891C42.4609 9.28516 42.6758 9.05859 42.9258 8.94922C42.9961 9.01953 43.1406 9.12891 43.3594 9.27734C43.5312 9.54297 43.7617 9.85547 44.0508 10.2148V10.2617C43.8008 10.5898 43.6211 10.7539 43.5117 10.7539H43.4648C43.4648 10.582 43.3594 10.4844 43.1484 10.4609C43.1094 10.4609 42.9375 10.5898 42.6328 10.8477C42.4531 10.9883 42.1445 11.1211 41.707 11.2461C41.1992 11.3477 40.8398 11.3984 40.6289 11.3984L39.9609 11.1641C39.5859 11.1641 39.2422 10.9609 38.9297 10.5547C38.7969 10.4141 38.6875 10.2461 38.6016 10.0508C38.6016 9.98828 38.5156 9.66406 38.3438 9.07812C38.2891 8.85156 38.2617 8.63281 38.2617 8.42188V8.41016C38.2617 7.37109 38.5742 6.46094 39.1992 5.67969C39.2773 5.48438 39.457 5.33984 39.7383 5.24609C39.9258 5.19141 40.1523 5.14844 40.418 5.11719C40.4883 5.08594 40.7148 5.08594 41.0977 5.11719ZM40.0195 5.36328V5.375H40.043C40.168 5.375 40.4023 5.33203 40.7461 5.24609C40.8164 5.23828 40.8516 5.21875 40.8516 5.1875L40.8164 5.15234H40.8047C40.5781 5.15234 40.3242 5.21484 40.043 5.33984L40.0195 5.36328ZM39.5508 5.5625V5.57422L39.5859 5.59766H39.5977C39.7539 5.55859 39.832 5.51953 39.832 5.48047V5.41016L39.7852 5.36328H39.7617C39.6211 5.41016 39.5508 5.47656 39.5508 5.5625ZM41.3555 5.44531H41.0039V5.46875C41.0039 5.5 41.1641 5.52344 41.4844 5.53906H41.4961V5.49219C41.4961 5.47656 41.4492 5.46094 41.3555 5.44531ZM40.5234 5.62109V5.63281C40.5234 5.66406 40.6836 5.70312 41.0039 5.75L41.0273 5.73828V5.69141C40.9648 5.60547 40.8594 5.5625 40.7109 5.5625H40.6758C40.5742 5.57031 40.5234 5.58984 40.5234 5.62109ZM41.2383 5.69141V5.70312C41.6836 5.96094 41.9219 6.08984 41.9531 6.08984H41.9648L42.082 6.04297L42.1523 6.06641L42.1641 6.04297V6.03125C42.1328 6.00781 42.0664 5.98438 41.9648 5.96094L41.7305 5.85547C41.668 5.72266 41.543 5.65625 41.3555 5.65625H41.3203C41.2656 5.66406 41.2383 5.67578 41.2383 5.69141ZM39.8438 6.03125C39.9219 5.96875 40.0781 5.90234 40.3125 5.83203V5.80859L40.3008 5.78516H40.1836C39.957 5.84766 39.8438 5.92969 39.8438 6.03125ZM39.2227 6.80469V6.83984C39.2227 6.92578 39.9336 7.02344 41.3555 7.13281L41.4727 7.16797L41.625 7.15625C41.9375 7.25781 42.1484 7.30859 42.2578 7.30859C42.2578 7.33203 42.2812 7.35156 42.3281 7.36719C42.375 7.29688 42.3984 7.23047 42.3984 7.16797V6.94531C42.3984 6.84375 42.2031 6.61719 41.8125 6.26562C41.6328 6.08594 41.4297 5.98438 41.2031 5.96094L40.8047 5.89062C40.1562 6.02344 39.7305 6.18359 39.5273 6.37109C39.4414 6.53516 39.3398 6.67969 39.2227 6.80469ZM39.3516 6.10156V6.125H39.375C39.4766 6.10156 39.5273 6.07422 39.5273 6.04297V6.03125H39.4688C39.4297 6.03125 39.3906 6.05469 39.3516 6.10156ZM42.1523 6.26562C42.168 6.32812 42.2031 6.35938 42.2578 6.35938H42.2812L42.3047 6.32422V6.25391L42.2578 6.19531C42.1875 6.19531 42.1523 6.21875 42.1523 6.26562ZM39.1289 6.32422L39.1055 6.35938V6.37109H39.1289L39.1758 6.33594V6.32422H39.1289ZM42.4453 6.41797H42.3984C42.4844 6.67578 42.5469 6.81641 42.5859 6.83984H42.6328L42.668 6.81641C42.6055 6.56641 42.5391 6.44141 42.4688 6.44141L42.4453 6.41797ZM39.2344 6.62891C39.2812 6.62109 39.3047 6.58984 39.3047 6.53516V6.52344C39.2578 6.53906 39.2344 6.57422 39.2344 6.62891ZM42.8438 6.94531L42.8086 6.96875V7.05078L42.8438 7.09766C42.875 7.08984 42.8906 7.0625 42.8906 7.01562V6.96875L42.8789 6.94531H42.8438ZM39.1055 7.10938V7.15625L39.1289 7.17969H39.1523C39.207 7.15625 39.2539 7.11328 39.293 7.05078V7.01562H39.2344C39.1875 7.01562 39.1445 7.04688 39.1055 7.10938ZM38.625 7.03906C38.5625 7.10156 38.5078 7.25781 38.4609 7.50781H38.4844C38.5312 7.50781 38.6016 7.37109 38.6953 7.09766C38.6797 7.05859 38.6562 7.03906 38.625 7.03906ZM39.8203 7.17969V7.21484C39.9688 7.31641 40.2383 7.36719 40.6289 7.36719H40.7344L40.8867 7.35547V7.30859C40.5664 7.23828 40.2109 7.19531 39.8203 7.17969ZM41.9648 7.48438H41.9297V7.51953H41.9648V7.48438ZM39.7031 7.57812V7.60156C39.8594 7.64062 40.2734 7.67969 40.9453 7.71875V7.73047V7.74219L40.6992 7.77734C40.6992 7.80078 40.8008 7.8125 41.0039 7.8125C41.332 7.8125 41.4961 7.79688 41.4961 7.76562C41.4961 7.6875 40.8984 7.625 39.7031 7.57812ZM38.5195 7.66016H38.4609V7.73047C38.4609 7.77734 38.4727 7.80078 38.4961 7.80078C38.5352 7.80078 38.5586 7.76172 38.5664 7.68359L38.5195 7.66016ZM39.4688 7.68359L39.4102 7.69531V7.76562H39.4688V7.71875V7.69531V7.68359ZM39.0938 7.77734V7.78906H39.1055L39.3047 7.76562V7.74219L39.2695 7.69531H39.2344C39.1641 7.69531 39.1172 7.72266 39.0938 7.77734ZM41.9414 7.80078C41.9414 7.83203 42.0117 7.84766 42.1523 7.84766L42.2578 7.83594V7.8125C42.2578 7.78125 42.1836 7.76562 42.0352 7.76562C41.9727 7.78125 41.9414 7.79297 41.9414 7.80078ZM38.4609 8.10547V8.14062V8.15234C38.4531 8.17578 38.4492 8.23047 38.4492 8.31641V8.36328C38.4492 8.50391 38.4883 8.62891 38.5664 8.73828H38.5781C38.5781 8.36328 38.5391 8.15234 38.4609 8.10547ZM38.6719 9.125H38.6367V9.14844L38.6719 9.17188H38.6953V9.14844L38.6719 9.125ZM38.7539 9.32422L38.7422 9.33594V9.35938C38.7734 9.48438 38.8203 9.54688 38.8828 9.54688V9.53516V9.51172C38.8828 9.44922 38.8398 9.38672 38.7539 9.32422ZM42.5742 9.42969L42.5977 9.46484H42.6562C42.7031 9.46484 42.7305 9.44922 42.7383 9.41797L42.6914 9.37109H42.6797C42.625 9.37109 42.5898 9.39062 42.5742 9.42969ZM42.3047 10.1094L42.3281 10.1211H42.3398C42.4258 10.1211 42.4805 10.0703 42.5039 9.96875V9.94531C42.418 9.94531 42.3516 10 42.3047 10.1094ZM43.125 10.0859L43.1367 10.0977H43.1719C43.2188 10.0664 43.2422 10.0234 43.2422 9.96875H43.207C43.1523 10 43.125 10.0391 43.125 10.0859ZM43.5352 9.96875H43.5234V9.99219C43.5469 10.0859 43.582 10.1328 43.6289 10.1328H43.6406L43.6641 10.1094V10.0977C43.6484 10.0117 43.6055 9.96875 43.5352 9.96875ZM42.8555 10.2148L42.8906 10.2383C43.0078 10.1992 43.0664 10.1484 43.0664 10.0859V10.0625H43.0547C42.9453 10.0625 42.8789 10.1133 42.8555 10.2148ZM41.9414 10.4727H41.9648C42.0273 10.4492 42.0625 10.4102 42.0703 10.3555L42.0586 10.3438C41.9805 10.3906 41.9414 10.4336 41.9414 10.4727ZM42.6328 10.5312H42.6797C42.7578 10.4609 42.7969 10.4102 42.7969 10.3789H42.7852C42.6836 10.4102 42.6328 10.4609 42.6328 10.5312ZM39.3047 10.6367H39.2695V10.6836C39.2852 10.7227 39.3516 10.7656 39.4688 10.8125L39.5156 10.8477C39.4297 10.7148 39.3594 10.6445 39.3047 10.6367ZM40.125 10.6836H40.1133V10.6953C40.1133 10.7266 40.1953 10.7617 40.3594 10.8008L40.3711 10.7891V10.7656C40.2695 10.7109 40.1875 10.6836 40.125 10.6836ZM40.8164 10.8125H40.7812V10.8477H40.8164V10.8125ZM42.0352 10.9883C42.1133 10.9883 42.1758 10.9297 42.2227 10.8125H42.1875C42.0859 10.8672 42.0352 10.9258 42.0352 10.9883ZM41.2148 11.1055L40.9688 11.082H40.9219C40.8516 11.082 40.8125 11.0977 40.8047 11.1289V11.1523L40.8516 11.1875H41.0625C41.3047 11.1875 41.5898 11.1445 41.918 11.0586C41.9023 11.0117 41.8555 10.9883 41.7773 10.9883H41.7188C41.5312 10.9883 41.3633 11.0273 41.2148 11.1055ZM44.2852 5.09375L44.3086 5.07031C44.4883 5.10156 44.6758 5.11719 44.8711 5.11719H45.832L45.8672 5.15234C45.8203 5.29297 45.7969 5.40234 45.7969 5.48047V5.67969C45.8281 5.89844 45.8906 6.00781 45.9844 6.00781C46.0312 5.92188 46.1875 5.83984 46.4531 5.76172C47.0859 5.48828 47.6016 5.35156 48 5.35156C48.2656 5.35156 48.5508 5.46875 48.8555 5.70312C49.082 5.78906 49.3008 5.97266 49.5117 6.25391C49.832 6.76172 49.9922 7.35938 49.9922 8.04688V8.14062L49.9102 8.98438L49.9922 9.59375L49.875 10.1445V10.168V10.2617L50.3203 10.2852H50.5195C50.6523 10.2852 50.7305 10.2969 50.7539 10.3203C50.7227 10.8906 50.6641 11.1758 50.5781 11.1758C50.4219 11.2695 50.2539 11.3164 50.0742 11.3164H49.8281C49.4531 11.3164 49.0586 11.3672 48.6445 11.4688C48.3711 11.4297 48.2344 11.293 48.2344 11.0586L48.2227 10.6367C48.2227 10.3789 48.2891 10.1914 48.4219 10.0742C48.4922 9.69141 48.5742 9.34375 48.668 9.03125L48.7383 7.98828C48.7617 7.98828 48.7734 7.90234 48.7734 7.73047C48.7734 7.51953 48.6055 7.21875 48.2695 6.82812C48.0117 6.71875 47.8633 6.66406 47.8242 6.66406C47.3711 6.66406 46.9648 6.85547 46.6055 7.23828C46.5742 7.23828 46.3828 7.42969 46.0312 7.8125C45.9219 7.89844 45.8672 8.16016 45.8672 8.59766C45.8828 9.38672 45.9102 9.78125 45.9492 9.78125C46.2617 9.83594 46.418 9.89453 46.418 9.95703V10.0039L46.1602 9.99219L45.9727 10.0039V10.0508C45.9727 10.082 46.1211 10.1211 46.418 10.168C46.4727 10.2227 46.5 10.3125 46.5 10.4375V10.4609C46.5 10.6484 46.4609 10.8477 46.3828 11.0586L45.0234 11.0703C44.8906 11.0703 44.793 11.0039 44.7305 10.8711C44.6992 10.7227 44.6641 10.4336 44.625 10.0039C44.625 9.96484 44.7422 9.92188 44.9766 9.875L45.0352 9.79297V9.78125C45.0352 9.73438 45.0039 9.66797 44.9414 9.58203V9.21875V8.55078L44.9883 7.47266C44.9883 6.73828 44.957 6.37109 44.8945 6.37109H44.8359L44.2852 6.44141C44.2305 6.44141 44.1562 6.39453 44.0625 6.30078V6.25391C44.1016 6.19141 44.1211 6.125 44.1211 6.05469L44.0977 5.62109L44.2852 5.09375ZM45.3047 5.30469L44.3438 5.45703V5.48047C44.3438 5.50391 44.4023 5.51953 44.5195 5.52734C45.0273 5.52734 45.2812 5.49219 45.2812 5.42188L45.3281 5.35156V5.32812H45.3047V5.30469ZM47.6367 5.52734V5.53906C47.6914 5.53906 47.7852 5.58594 47.918 5.67969L48.0469 5.71484L48.4219 5.70312L48.4336 5.67969V5.66797C48.4258 5.62109 48.3828 5.59766 48.3047 5.59766H48.2578L48.1406 5.62109C47.9688 5.51953 47.8438 5.46875 47.7656 5.46875C47.6953 5.46875 47.6523 5.48828 47.6367 5.52734ZM46.8398 5.73828V5.75L46.8633 5.78516C47.2305 5.69141 47.4141 5.62109 47.4141 5.57422H47.3906C47.2188 5.57422 47.0352 5.62891 46.8398 5.73828ZM44.5781 5.75L44.6133 5.78516H44.6367C44.7383 5.77734 44.7891 5.75391 44.7891 5.71484L44.7305 5.70312C44.6289 5.70312 44.5781 5.71875 44.5781 5.75ZM44.6836 5.98438V6.00781L44.9062 5.99609H44.9414C45.0195 5.99609 45.0664 6.01562 45.082 6.05469V6.08984C45.043 6.12891 45.0234 6.16797 45.0234 6.20703C45.0625 6.23828 45.1094 6.25391 45.1641 6.25391C45.1875 6.25391 45.1992 6.23828 45.1992 6.20703L45.2109 5.82031L45.1992 5.78516H45.1641C45.1172 5.81641 44.9609 5.87891 44.6953 5.97266L44.6836 5.98438ZM46.6289 5.85547L46.6406 5.86719V5.87891C46.7109 5.85547 46.7461 5.83594 46.7461 5.82031V5.79688H46.7227C46.6602 5.8125 46.6289 5.83203 46.6289 5.85547ZM44.2617 5.86719V5.87891C44.2617 5.90234 44.2812 5.92188 44.3203 5.9375C44.3828 5.9375 44.4531 5.90234 44.5312 5.83203V5.82031H44.3438C44.2891 5.82812 44.2617 5.84375 44.2617 5.86719ZM48.3047 6.05469C48.3047 6.08594 48.375 6.10938 48.5156 6.125C48.5469 6.10156 48.5625 6.07031 48.5625 6.03125C48.5625 5.99219 48.5 5.96094 48.375 5.9375C48.3281 5.96875 48.3047 6.00781 48.3047 6.05469ZM45.9375 6.14844V6.19531C46.0469 6.19531 46.1641 6.125 46.2891 5.98438V5.97266L46.2773 5.96094H46.2656C46.1719 5.96094 46.0625 6.02344 45.9375 6.14844ZM48.75 5.98438L48.7148 6.03125C48.7305 6.07031 48.7617 6.08984 48.8086 6.08984H48.8672L48.9258 6.04297V6.03125C48.918 6 48.8789 5.98438 48.8086 5.98438H48.75ZM47.4492 6.10156V6.125H47.5078C47.625 6.10938 47.6836 6.08594 47.6836 6.05469V6.03125H47.6016C47.5 6.03906 47.4492 6.0625 47.4492 6.10156ZM45.5273 6.04297H45.4688L45.4453 6.11328V6.32422C45.4453 6.41797 45.4297 6.48047 45.3984 6.51172V6.57031L45.4453 6.73438V6.82812C45.4453 6.89062 45.4648 6.93359 45.5039 6.95703C45.5117 6.95703 45.5352 6.86719 45.5742 6.6875C45.6836 6.60156 45.7383 6.53516 45.7383 6.48828C45.7383 6.44922 45.6953 6.36328 45.6094 6.23047C45.5859 6.10547 45.5586 6.04297 45.5273 6.04297ZM44.3555 6.23047V6.25391H44.4727L44.5195 6.20703V6.19531L44.4609 6.17188C44.3906 6.19531 44.3555 6.21484 44.3555 6.23047ZM48.5508 6.26562L48.4805 6.23047L48.457 6.25391V6.26562L48.5156 6.30078H48.5273L48.5508 6.26562ZM47.6484 6.34766L47.6719 6.37109H47.6836C47.8555 6.37109 47.9414 6.35547 47.9414 6.32422L47.8477 6.30078C47.7148 6.31641 47.6484 6.33203 47.6484 6.34766ZM45.9492 6.80469V6.83984C46.1523 6.81641 46.4336 6.64844 46.793 6.33594V6.32422H46.7227C46.6914 6.32422 46.5977 6.37891 46.4414 6.48828C46.1133 6.58984 45.9492 6.69531 45.9492 6.80469ZM48.75 6.34766H48.7383V6.38281C48.7383 6.40625 48.7891 6.51562 48.8906 6.71094C48.8906 6.77344 48.9062 6.80469 48.9375 6.80469L48.9844 6.75781V6.71094C48.9844 6.58594 48.9062 6.46484 48.75 6.34766ZM45.1055 6.48828L45.1289 6.52344H45.1523L45.1875 6.37109H45.1523C45.1289 6.37109 45.1133 6.41016 45.1055 6.48828ZM48.0586 6.57031V6.60547H48.3516L48.3984 6.57031V6.52344L48.3398 6.48828H48.2812C48.1328 6.51172 48.0586 6.53906 48.0586 6.57031ZM46.8984 6.75781C47.0703 6.72656 47.1562 6.68359 47.1562 6.62891L47.1211 6.60547H47.0859C46.9688 6.60547 46.9062 6.65625 46.8984 6.75781ZM46.5234 6.89844V6.92188H46.5586C46.6836 6.82031 46.7461 6.73438 46.7461 6.66406H46.7227V6.64062C46.6602 6.64062 46.5938 6.72656 46.5234 6.89844ZM45.6211 6.78125L45.6445 6.85156C45.6445 6.91406 45.6094 6.97656 45.5391 7.03906C45.5781 7.07812 45.5977 7.11719 45.5977 7.15625C45.5977 7.54688 45.625 7.74219 45.6797 7.74219H45.6914C45.7539 7.60156 45.7852 7.41797 45.7852 7.19141C45.7773 6.90234 45.7422 6.75 45.6797 6.73438H45.6562C45.6328 6.73438 45.6211 6.75 45.6211 6.78125ZM48.9258 6.93359V6.96875C49.0195 7.32031 49.0781 7.50391 49.1016 7.51953L49.125 7.4375V7.33203C49.0703 7.06641 49.0039 6.93359 48.9258 6.93359ZM49.4531 6.95703H49.4414C49.457 7.37109 49.4961 7.57812 49.5586 7.57812H49.582C49.543 7.16406 49.5 6.95703 49.4531 6.95703ZM46.3828 6.98047L46.3125 7.07422V7.09766L46.3242 7.12109H46.3828L46.418 6.98047H46.3828ZM46.0547 7.09766L46.0312 7.12109L46.0547 7.15625H46.1016V7.12109L46.0781 7.09766H46.0547ZM49.3711 8.48047V8.49219L49.4062 8.63281H49.4648C49.457 8.53125 49.4258 8.48047 49.3711 8.48047ZM48.9258 9.32422L48.9375 9.33594H48.9492C48.9727 9.33594 48.9844 9.29688 48.9844 9.21875V9.07812C48.9531 9.07812 48.9336 9.16016 48.9258 9.32422ZM48.8555 9.51172C48.9023 9.56641 48.9258 9.64062 48.9258 9.73438H48.9492L48.9844 9.59375V9.39453C48.8984 9.39453 48.8555 9.43359 48.8555 9.51172ZM49.3711 9.40625H49.3477V9.46484H49.3711V9.40625ZM49.6406 9.46484L49.6172 9.69922V9.99219H49.6289C49.7305 9.86719 49.7812 9.75 49.7812 9.64062V9.62891C49.7812 9.51953 49.7344 9.46484 49.6406 9.46484ZM49.3359 10.0039V10.0273H49.3477L49.3945 9.89844V9.875H49.3711C49.3477 9.875 49.3359 9.91797 49.3359 10.0039ZM44.8125 10.0508L44.7891 10.0977V10.1094C44.8047 10.25 44.8555 10.3203 44.9414 10.3203H45.0117L45.0469 10.2852V10.2617C44.9766 10.1758 44.9414 10.1055 44.9414 10.0508H44.8125ZM49.3711 10.2148H49.3242V10.2617L49.3711 10.3086L49.4062 10.2852V10.2617L49.3711 10.2148ZM50.0039 10.4844V10.5195C50.3555 10.5195 50.5312 10.4922 50.5312 10.4375V10.4141H50.3672C50.125 10.4219 50.0039 10.4453 50.0039 10.4844ZM45.3047 10.6016C45.3047 10.6406 45.4062 10.6602 45.6094 10.6602C46 10.6602 46.1953 10.6406 46.1953 10.6016C46.1953 10.5547 46.0625 10.5312 45.7969 10.5312C45.5 10.5312 45.3359 10.5547 45.3047 10.6016ZM48.4805 10.6367H48.4453V10.707L48.4805 10.7422H48.5156L48.5273 10.707V10.6953L48.4805 10.6367ZM50.1094 10.7305V10.7656C50.125 10.8047 50.1602 10.8242 50.2148 10.8242C50.3398 10.8242 50.4141 10.7969 50.4375 10.7422V10.707C50.4219 10.6602 50.3789 10.6367 50.3086 10.6367H50.25C50.1719 10.6367 50.125 10.668 50.1094 10.7305ZM48.7383 10.9414C48.7617 11.0039 48.8008 11.0352 48.8555 11.0352C49.2773 11.0273 49.4883 11 49.4883 10.9531C49.4336 10.8828 49.3359 10.8477 49.1953 10.8477C48.8906 10.8555 48.7383 10.8867 48.7383 10.9414ZM48.4453 11.1641L48.3984 11.2109V11.2344C48.3984 11.2891 48.5039 11.3164 48.7148 11.3164H48.7734L48.8672 11.293V11.2812C48.7891 11.2031 48.6641 11.1641 48.4922 11.1641H48.4453Z" fill="#172554"/>
<g clip-path="url(#clip0_12_9)">
<mask id="mask0_12_9" style="mask-type:luminance" maskUnits="userSpaceOnUse" x="0" y="1" width="26" height="26">
<path d="M26 1H0V27H26V1Z" fill="white"/>
</mask>
<g mask="url(#mask0_12_9)">
<path fill-rule="evenodd" clip-rule="evenodd" d="M12.3693 5.97835C11.5282 5.13735 10.1669 5.13735 9.32594 5.97835L8.67381 6.63051L7.36949 5.3262L8.02168 4.67406C8.86267 3.83307 8.86267 2.47173 8.02168 1.63074C7.18068 0.789753 5.81932 0.789753 4.97835 1.63074C4.13735 2.47173 4.13735 3.83307 4.97835 4.67406L5.63051 5.3262L4.3262 6.63051L3.67406 5.97835C2.83307 5.13735 1.47173 5.13735 0.63074 5.97835C-0.210247 6.81932 -0.210247 8.18068 0.63074 9.02168C1.47173 9.86267 2.83307 9.86267 3.67406 9.02168L4.3262 8.36949L5.63051 9.67381L4.97835 10.3259C4.13735 11.1669 4.13735 12.5282 4.97835 13.3693C5.81932 14.2102 7.18068 14.2102 8.02168 13.3693C8.86267 12.5282 8.86267 11.1669 8.02168 10.3259L7.36949 9.67381L8.67381 8.36949L9.32594 9.02168C10.1669 9.86267 11.5282 9.86267 12.3693 9.02168C13.2102 8.18068 13.2102 6.81932 12.3693 5.97835ZM7.15213 12.4997C6.79208 12.8598 6.20792 12.8598 5.84787 12.4997C5.48782 12.1397 5.48782 11.5555 5.84787 11.1954L6.5 10.5434L7.15213 11.1954C7.51218 11.5555 7.51218 12.1397 7.15213 12.4997ZM5.19571 7.5L6.5 6.19571L7.80432 7.5L6.5 8.80432L5.19571 7.5ZM5.84787 2.50026C6.20792 2.14023 6.79208 2.14023 7.15213 2.50026C7.51218 2.8603 7.51218 3.4445 7.15213 3.80454L6.5 4.45667L5.84787 3.80454C5.48782 3.4445 5.48782 2.8603 5.84787 2.50026ZM1.50026 6.84787C1.14023 7.20792 1.14023 7.79208 1.50026 8.15213C1.8603 8.51218 2.4445 8.51218 2.80454 8.15213L3.45667 7.5L2.80454 6.84787C2.4445 6.48782 1.8603 6.48782 1.50026 6.84787ZM11.4997 8.15213C11.1397 8.51218 10.5555 8.51218 10.1954 8.15213L9.54335 7.5L10.1954 6.84787C10.5555 6.48782 11.1397 6.48782 11.4997 6.84787C11.8598 7.20792 11.8598 7.79208 11.4997 8.15213Z" fill="#172554"/>
</g>
</g>
<defs>
<clipPath id="clip0_12_9">
<rect width="13" height="13" fill="white" transform="translate(0 1)"/>
</clipPath>
</defs>
</svg>
