<svg width="49" height="15" viewBox="0 0 49 15" fill="none" xmlns="http://www.w3.org/2000/svg">
<path d="M14.0781 3.04297H14.2188C14.6094 3.04297 15.3281 3.09375 16.375 3.19531L17.6758 3.23047H17.7109C18.3047 3.23047 18.7383 3.20312 19.0117 3.14844C19.1055 3.5 19.1523 3.92188 19.1523 4.41406V4.47266C19.1523 4.68359 19.1055 4.78906 19.0117 4.78906L18.9648 4.83594C18.9648 4.86719 19.0117 4.90234 19.1055 4.94141H19.1289V4.98828C19.082 5.05859 18.9453 5.10156 18.7188 5.11719C18.5312 5.11719 18.4375 5.05469 18.4375 4.92969L18.4258 4.64844L18.4375 4.10938C18.4375 4.03906 18.207 4.00391 17.7461 4.00391H17.043L16.6445 3.99219C16.5742 3.99219 16.5195 4.63281 16.4805 5.91406C16.4336 6.96875 16.4102 7.68359 16.4102 8.05859V8.41016C16.4102 8.51172 16.375 8.61719 16.3047 8.72656V8.73828C16.3672 8.73828 16.4023 8.82031 16.4102 8.98438L16.375 9.16016H16.3516V9.14844V9.07812L16.3281 9.99219C16.3281 10.0859 16.7148 10.168 17.4883 10.2383C17.6367 10.293 17.7109 10.3672 17.7109 10.4609C17.6484 10.6016 17.6172 10.7773 17.6172 10.9883C17.5938 10.9883 17.582 11.0273 17.582 11.1055L17.5352 11.1523C16.6992 11.1055 15.9297 11.082 15.2266 11.082H14.957C14.5977 11.082 14.3203 11.0977 14.125 11.1289C14.1094 11.0977 14.0781 10.8398 14.0312 10.3555H14.043L14.207 10.4258H14.2188L14.2656 10.3906V10.3789C14.25 10.3398 14.2109 10.3203 14.1484 10.3203L14.1133 10.2852V10.2617C14.1133 10.2383 14.2852 10.1953 14.6289 10.1328C14.6289 10.1094 14.9023 10.0938 15.4492 10.0859C15.5117 10.0859 15.5547 9.83203 15.5781 9.32422L15.6367 8.57422C15.5664 7.92578 15.5312 7.52344 15.5312 7.36719L15.4023 5.04688V4.74219L15.4258 4.30859L15.4023 4.15625L15.4492 4.0625V4.00391C15.4492 3.93359 15.1406 3.89453 14.5234 3.88672C14.0781 3.91016 13.8555 3.94141 13.8555 3.98047C13.7852 4.16016 13.7148 4.42969 13.6445 4.78906L13.5625 4.85938L13.5391 4.84766H13.457C13.4258 4.87891 13.3906 4.89453 13.3516 4.89453L13.0234 4.91797C13.0234 4.76953 13.0234 4.61719 13.0234 4.46094C13.0312 4.29688 13.0352 4.17188 13.0352 4.08594C13.043 4 13.0469 3.9375 13.0469 3.89844L12.9883 3.45312C12.9883 3.35938 13.0469 3.30469 13.1641 3.28906L13.3047 3.14844H13.3633L13.4688 3.28906H13.4922C13.625 3.125 13.8203 3.04297 14.0781 3.04297ZM16.7031 3.48828L16.668 3.52344C16.668 3.5625 16.793 3.58984 17.043 3.60547C17.1758 3.58984 17.2422 3.57422 17.2422 3.55859V3.53516C17.1484 3.50391 16.9805 3.48828 16.7383 3.48828H16.7031ZM18.2383 3.81641H18.1211V3.82812C18.1367 3.86719 18.168 3.88672 18.2148 3.88672H18.2852V3.86328L18.2383 3.81641ZM18.5312 3.81641H18.4727V3.86328H18.5078L18.5312 3.82812V3.81641ZM16 4.10938V4.12109L16.0352 4.15625C16.1133 4.15625 16.1914 4.10547 16.2695 4.00391V3.98047L16.2109 3.96875C16.1406 3.96875 16.0703 4.01562 16 4.10938ZM13.5156 4.00391L13.457 4.0625V4.15625L13.4922 4.20312H13.5156L13.5742 4.14453V4.0625L13.5273 4.00391H13.5156ZM15.6367 4.09766V4.15625C15.6602 4.27344 15.6836 4.33203 15.707 4.33203C15.7461 4.33203 15.7773 4.28906 15.8008 4.20312V4.12109C15.8008 4.07422 15.7734 4.03516 15.7188 4.00391C15.6641 4.00391 15.6367 4.03516 15.6367 4.09766ZM18.7188 4.0625H18.6953L18.6602 4.21484L18.7188 4.23828L18.7539 4.20312V4.10938L18.7188 4.0625ZM16.1172 4.48438H16.1055L16.082 4.625V4.8125H16.1055L16.1172 4.64844V4.48438ZM18.6484 4.8125L18.625 4.83594V4.89453H18.6484L18.6953 4.84766V4.83594L18.6602 4.8125H18.6484ZM16.2227 5.53906H16.1992L16.1758 5.96094V6.24219C16.1758 6.4375 16.1953 6.53516 16.2344 6.53516H16.2578L16.293 6.38281L16.2227 5.53906ZM15.7188 5.89062L15.6953 5.92578L15.707 5.94922H15.7188V5.89062ZM15.8477 6.76953H15.8125C15.7656 6.96484 15.7422 7.17578 15.7422 7.40234V7.54297C15.7422 7.91797 15.7773 8.10547 15.8477 8.10547C15.8711 8.10547 15.8867 8.04297 15.8945 7.91797L15.8242 7.36719L15.8828 7.10938L15.8477 6.76953ZM15.9414 8.41016H15.8945V8.60938L16 8.78516V8.72656C16 8.51562 15.9805 8.41016 15.9414 8.41016ZM14.8398 10.2617L14.7812 10.3203V10.3789C14.7812 10.3945 14.7969 10.4023 14.8281 10.4023L15.0742 10.3789V10.3438C15.043 10.2891 14.9844 10.2617 14.8984 10.2617H14.8398ZM14.5586 10.3086H14.5234L14.5 10.3438L14.5352 10.3789H14.582L14.6055 10.3438L14.5586 10.3086ZM17.043 10.4727C17.1602 10.5039 17.2969 10.5195 17.4531 10.5195L17.4766 10.4961V10.4609L17.3594 10.4258H17.125C17.0703 10.4336 17.043 10.4492 17.043 10.4727ZM16.8203 10.625L16.7734 10.6719C16.7969 10.7266 16.8359 10.7539 16.8906 10.7539H16.9609C17.0078 10.7539 17.0391 10.7422 17.0547 10.7188V10.6953C17.0547 10.6641 17 10.6406 16.8906 10.625H16.8203ZM15.6953 10.6484L15.5898 10.6719V10.7188L15.6953 10.7305H15.8594C15.9062 10.7305 15.9336 10.7148 15.9414 10.6836C15.9023 10.6602 15.8438 10.6484 15.7656 10.6484H15.6953ZM14.875 10.6953L14.8164 10.7188V10.7539L15.0039 10.7891L15.1562 10.7539V10.7422L15.1094 10.6953H14.875ZM14.3477 10.918V10.9414L14.3828 10.9648H14.4062C14.4609 10.9336 14.4883 10.8789 14.4883 10.8008V10.7891L14.4531 10.7539H14.4414C14.3789 10.793 14.3477 10.8477 14.3477 10.918ZM17.4414 10.7891L17.3945 10.8359V10.8711L17.4414 10.8945L17.4766 10.8477V10.8125L17.4414 10.7891ZM19.8789 4.64844L21.332 4.61328C21.457 4.61328 21.7188 4.66797 22.1172 4.77734C22.5703 5.20703 22.8398 5.54297 22.9258 5.78516C23.0977 5.96484 23.2344 6.32031 23.3359 6.85156C23.4609 6.97656 23.5234 7.25391 23.5234 7.68359L23.5352 7.97656L23.4883 9.13672C23.4883 9.37109 23.6328 9.66016 23.9219 10.0039C24.1875 10.2617 24.3594 10.3906 24.4375 10.3906V10.4141C24.4375 10.5078 24.3008 10.6562 24.0273 10.8594C23.8242 11.0625 23.6953 11.1641 23.6406 11.1641H23.6289C23.5039 11.1484 23.1875 10.918 22.6797 10.4727C21.7578 10.832 21.293 11.0156 21.2852 11.0234C20.9805 11.1172 20.6406 11.1641 20.2656 11.1641H20.207C19.7852 11.0938 19.4258 10.9297 19.1289 10.6719C19.0742 10.625 18.9609 10.4297 18.7891 10.0859C18.6484 9.91406 18.5781 9.70312 18.5781 9.45312V9.11328C18.5781 8.89453 18.6367 8.69141 18.7539 8.50391C18.8555 8.18359 19.0312 7.87891 19.2812 7.58984C19.4062 7.44141 19.5312 7.34766 19.6562 7.30859C20.0625 7.08984 20.4648 6.98047 20.8633 6.98047L21.3906 6.96875H21.4609C21.7578 6.96875 21.9688 7.01172 22.0938 7.09766H22.1641C22.2031 7.09766 22.2227 7.08203 22.2227 7.05078C22.1367 6.68359 21.9961 6.33203 21.8008 5.99609C21.6289 5.70703 21.3086 5.5625 20.8398 5.5625L20.3594 5.49219C19.9453 5.57812 19.7383 5.66406 19.7383 5.75C19.5742 5.96094 19.4766 6.22266 19.4453 6.53516C19.4297 6.57422 19.2891 6.59375 19.0234 6.59375L18.9531 6.61719C18.9219 6.61719 18.8828 6.68359 18.8359 6.81641C18.6172 6.78516 18.5078 6.73828 18.5078 6.67578C18.5234 6.62891 18.5508 6.34766 18.5898 5.83203C18.7148 5.47266 19.0117 5.14062 19.4805 4.83594C19.6992 4.71094 19.832 4.64844 19.8789 4.64844ZM21.1914 4.84766L21.168 4.88281L21.2031 4.92969H21.2734L21.2852 4.90625L21.25 4.84766H21.1914ZM22.082 4.94141H22.0586V4.96484C22.1211 5.02734 22.1758 5.05859 22.2227 5.05859H22.2344V5.03516C22.1719 4.97266 22.1211 4.94141 22.082 4.94141ZM20.207 5V5.03516C20.2148 5.05859 20.2539 5.07031 20.3242 5.07031C20.3945 5.07031 20.4922 5.04688 20.6172 5V4.95312H20.5703C20.3984 4.95312 20.2773 4.96875 20.207 5ZM19.1523 5.375V5.39844H19.1641C19.2344 5.39844 19.3398 5.32422 19.4805 5.17578V5.14062H19.4688C19.3906 5.14062 19.2852 5.21875 19.1523 5.375ZM20.7812 5.29297L20.7227 5.33984L20.7578 5.39844H20.9102L20.9453 5.36328L20.875 5.29297H20.7812ZM19.0586 6.24219L19.0234 6.26562V6.44141H19.0352C19.0664 6.43359 19.082 6.40625 19.082 6.35938V6.26562L19.0586 6.24219ZM23.3125 7.17969H23.3008V7.20312C23.3164 7.26562 23.332 7.29688 23.3477 7.29688L23.3594 7.23828C23.3438 7.19922 23.3281 7.17969 23.3125 7.17969ZM23.043 7.58984L23.0078 7.61328V7.64844C23.0391 7.76562 23.0703 7.82422 23.1016 7.82422H23.125C23.125 7.72266 23.1016 7.64453 23.0547 7.58984H23.043ZM19.6094 7.66016L19.4805 7.71875V7.77734H19.5039C19.5586 7.77734 19.5977 7.74609 19.6211 7.68359V7.66016H19.6094ZM19.4805 8.77344C19.5352 9.24219 19.6016 9.47656 19.6797 9.47656L19.7969 9.62891V9.64062L19.6914 9.62891V9.66406C19.8398 9.86719 20.1445 10.0547 20.6055 10.2266C20.6602 10.2578 20.7383 10.2812 20.8398 10.2969C20.9805 10.2969 21.5195 10.0664 22.457 9.60547C22.5195 9.56641 22.5508 9.52344 22.5508 9.47656V9.41797C22.4805 9.09766 22.4219 8.72266 22.375 8.29297L22.3516 8.28125C22.3516 8.19531 22.2656 8.125 22.0938 8.07031C21.5156 7.90625 21.1211 7.82422 20.9102 7.82422C20.3164 7.95703 19.9102 8.15625 19.6914 8.42188C19.5508 8.5625 19.4805 8.67969 19.4805 8.77344ZM23.0078 8.01172L22.9727 7.98828V8.02344H23.0078V8.01172ZM23.0547 8.23438H22.9844V8.28125L23.0195 8.31641L23.0547 8.28125V8.23438ZM22.6797 8.52734L22.6445 8.5625L22.6797 8.60938L22.7266 8.59766V8.5625L22.6914 8.52734H22.6797ZM23.1016 8.5625H23.0664V8.57422C23.082 8.87109 23.1133 9.01953 23.1602 9.01953L23.1836 8.99609V8.97266C23.1836 8.80859 23.1562 8.67188 23.1016 8.5625ZM22.6445 8.9375L22.6328 8.94922V9.01953L22.668 9.06641H22.6797L22.7266 9.01953V8.94922L22.6914 8.9375H22.6445ZM23.6406 10.0391H23.6055V10.1094C23.6367 10.2109 23.6719 10.2617 23.7109 10.2617H23.7461V10.2266C23.7148 10.1016 23.6797 10.0391 23.6406 10.0391ZM19.3281 10.0742L19.3047 10.0977V10.1094L19.3281 10.1328H19.3867V10.1094L19.3516 10.0742H19.3281ZM23.2773 10.2266L23.2422 10.2617C23.2656 10.3164 23.2969 10.3516 23.3359 10.3672H23.3477L23.3945 10.3203V10.2969L23.3359 10.2266H23.2773ZM21.5781 10.3906V10.4141H21.625C21.7344 10.4141 21.8789 10.3672 22.0586 10.2734V10.2617H22.0117C21.7461 10.293 21.6016 10.3359 21.5781 10.3906ZM23.5352 10.4258L23.5117 10.4727V10.4961L23.5586 10.543H23.6055L23.6406 10.5195V10.4961L23.582 10.4258H23.5352ZM20.6406 10.5195L20.6055 10.5547C20.6211 10.5938 20.6523 10.6133 20.6992 10.6133C20.7852 10.5977 20.8281 10.5781 20.8281 10.5547V10.543L20.793 10.5195H20.6406ZM19.3633 10.6836L19.3281 10.7305C19.3594 10.8008 19.5547 10.8906 19.9141 11C20.0312 11.0547 20.1875 11.082 20.3828 11.082V11.0703C20.3828 11.0469 20.2344 11.0039 19.9375 10.9414C19.7656 10.8945 19.5859 10.8086 19.3984 10.6836H19.3633ZM24.8945 2.51562L24.9062 2.52734V2.53906L24.8711 2.57422C24.8789 2.60547 24.9102 2.62109 24.9648 2.62109H24.9883L25.0117 2.58594L24.9648 2.52734L24.9883 2.51562H25.4453C25.7188 2.51562 25.8555 2.59766 25.8555 2.76172L25.8906 2.80859H25.9258L25.9609 2.78516V2.76172L25.9258 2.66797L25.9375 2.64453H25.9609C26.1562 2.64453 26.2539 2.85547 26.2539 3.27734C26.2539 4.22266 26.3086 4.92188 26.418 5.375H26.4648L27.1914 5.33984C28.082 5.39453 28.5273 5.47266 28.5273 5.57422C28.5586 5.57422 28.7109 5.69531 28.9844 5.9375C29.4297 6.3125 29.7148 6.67969 29.8398 7.03906C29.9805 7.19531 30.0508 7.62109 30.0508 8.31641L30.0625 8.66797C29.8281 9.15234 29.7109 9.44141 29.7109 9.53516C29.7109 9.81641 29.3984 10.1875 28.7734 10.6484C28.6875 10.8438 28.2109 10.9453 27.3438 10.9531C26.9609 10.8828 26.6953 10.8477 26.5469 10.8477H26.2773C26.1445 10.8477 26.0781 10.9023 26.0781 11.0117L25.832 11.3281C25.6992 11.3672 25.5938 11.3867 25.5156 11.3867C25.4219 11.3867 25.2305 11.3125 24.9414 11.1641V11.1289C24.9961 11.0664 25.0234 11.0039 25.0234 10.9414V10.8945L24.9883 10.6836L25.0117 10.5195V10.3086L24.9648 10.0742C25.0586 9.56641 25.1055 9.22266 25.1055 9.04297L25.1406 8.92578L25.1172 8.77344L25.2227 7.94141V7.89453C25.2227 7.69141 25.1719 7.05859 25.0703 5.99609V5.97266L25.0469 5.96094L25.0703 5.87891V5.83203C25.1016 5.35547 25.1172 4.91797 25.1172 4.51953V3.64062L25.1055 3.57031H25.082C24.7852 3.72656 24.5703 3.80469 24.4375 3.80469C24.3438 3.80469 24.2852 3.59375 24.2617 3.17188C24.2617 3.14063 24.2852 3.09766 24.332 3.04297V3.00781H24.3086L24.2734 3.01953L24.2617 3.00781C24.2617 2.71094 24.293 2.5625 24.3555 2.5625C24.4414 2.53125 24.6211 2.51562 24.8945 2.51562ZM25.8672 2.52734H25.9258V2.5625L25.8672 2.57422L25.8555 2.5625V2.53906L25.8672 2.52734ZM25.2227 2.71484H25.1875V2.72656H25.2227V2.71484ZM25.4453 2.71484L25.4102 2.75V2.76172H25.4922V2.71484H25.4453ZM24.4844 2.75H24.3555V2.76172C24.3555 2.78516 24.4375 2.81641 24.6016 2.85547C24.7656 2.84766 24.8477 2.82812 24.8477 2.79688V2.78516C24.7539 2.76172 24.6328 2.75 24.4844 2.75ZM25.5977 2.90234L25.5391 2.96094V3.14844L25.5742 3.17188C25.6367 3.13281 25.668 3.07031 25.668 2.98438C25.668 2.9375 25.6562 2.91016 25.6328 2.90234H25.5977ZM25.1523 3.125L25.1992 3.16016H25.3281L25.375 3.10156V3.04297L25.3281 3.00781C25.2109 3.00781 25.1523 3.04688 25.1523 3.125ZM24.5547 3.01953H24.5312L24.5195 3.08984V3.19531C24.5195 3.22656 24.5586 3.24609 24.6367 3.25391C24.7461 3.25391 24.8086 3.21875 24.8242 3.14844C24.7148 3.0625 24.625 3.01953 24.5547 3.01953ZM24.9883 3.05469H24.8945V3.07812L24.9297 3.125H25.0234V3.08984L24.9883 3.05469ZM25.5508 4.00391C25.5742 4.17578 25.6055 4.26172 25.6445 4.26172H25.6562V4.23828C25.6406 4.05859 25.6133 3.96875 25.5742 3.96875C25.5586 3.96875 25.5508 3.98047 25.5508 4.00391ZM27.918 5.57422H27.8242V5.59766C27.8477 5.64453 27.8945 5.66797 27.9648 5.66797H27.9766V5.63281L27.918 5.57422ZM26.9688 5.70312L27.0039 5.73828H27.0742L27.1797 5.70312V5.64453L27.1211 5.63281C27.0586 5.63281 27.0078 5.65625 26.9688 5.70312ZM26.4414 6.04297V6.08984H26.4648C26.6602 6.05859 26.7578 6.02734 26.7578 5.99609V5.96094H26.7344C26.6484 5.96094 26.5508 5.98828 26.4414 6.04297ZM28.2812 5.99609H28.2344C28.2344 6.07422 28.3477 6.14453 28.5742 6.20703C28.7305 6.41797 28.8438 6.52344 28.9141 6.52344V6.51172C28.8672 6.34766 28.7969 6.23438 28.7031 6.17188C28.4922 6.05469 28.3516 5.99609 28.2812 5.99609ZM26.1016 8.32812C26.1016 8.51562 26.1094 8.69531 26.125 8.86719L26.1133 9.16016V9.6875C26.1133 9.78906 26.2969 9.89453 26.6641 10.0039C26.75 10.0352 26.8984 10.0508 27.1094 10.0508C27.5 10.0508 27.9883 9.92578 28.5742 9.67578C28.7617 9.52734 28.9727 9.21484 29.207 8.73828L29.2773 8.44531C29.2773 8.04688 29.1562 7.62891 28.9141 7.19141C28.8594 6.94922 28.7305 6.73438 28.5273 6.54688L28 6.17188C27.4531 6.17188 26.8867 6.28906 26.3008 6.52344C26.2383 6.52344 26.1953 6.80078 26.1719 7.35547C26.125 7.62891 26.1016 7.95312 26.1016 8.32812ZM29.7344 7.10938H29.7109V7.15625C29.7109 7.21094 29.7383 7.23828 29.793 7.23828H29.8047V7.22656C29.8047 7.17188 29.7812 7.13281 29.7344 7.10938ZM29.3359 7.41406H29.3008V7.44922L29.3359 7.47266H29.3594V7.44922L29.3359 7.41406ZM29.418 9.875V9.88672C29.5273 9.88672 29.6055 9.71094 29.6523 9.35938H29.5703C29.5391 9.35938 29.4961 9.50391 29.4414 9.79297C29.4258 9.79297 29.418 9.82031 29.418 9.875ZM29.125 9.67578V9.6875L29.1602 9.71094C29.2461 9.67188 29.2891 9.62891 29.2891 9.58203L29.2539 9.54688H29.2188C29.1562 9.58594 29.125 9.62891 29.125 9.67578ZM28.293 9.95703V9.99219L28.3281 10.0039H28.3516C28.4531 10.0039 28.5039 9.98438 28.5039 9.94531L28.4688 9.89844H28.3984C28.3438 9.89844 28.3086 9.91797 28.293 9.95703ZM26.207 9.94531V9.95703C26.2148 9.98828 26.2422 10.0039 26.2891 10.0039V9.99219C26.2812 9.96094 26.2539 9.94531 26.207 9.94531ZM25.7734 9.95703L25.75 9.99219V10.0625L25.7734 10.0977H25.7852L25.8203 10.0625V10.0508C25.8203 9.99609 25.8047 9.96484 25.7734 9.95703ZM28.6562 10.2852V10.3203C28.9062 10.25 29.043 10.1914 29.0664 10.1445V10.1211C28.9961 10.1211 28.8594 10.1758 28.6562 10.2852ZM25.1055 10.2617H25.0703V10.3086L25.1055 10.3203H25.1172V10.3086L25.1055 10.2617ZM28.0938 10.3438L28.0703 10.3672V10.4023H28.1758L28.2109 10.3555V10.3438H28.0938ZM27.2266 10.543L27.25 10.5547H27.3672C27.5547 10.5391 27.6602 10.5117 27.6836 10.4727V10.4375H27.6484C27.4531 10.4375 27.3125 10.4727 27.2266 10.543ZM26.2656 10.5078H26.1836V10.5312C26.1836 10.5625 26.25 10.5859 26.3828 10.6016H26.4062V10.5547C26.4062 10.5391 26.3594 10.5234 26.2656 10.5078ZM25.6328 10.7188L25.668 10.7305C25.7383 10.6914 25.7734 10.6562 25.7734 10.625H25.7148C25.6602 10.625 25.6328 10.6562 25.6328 10.7188ZM25.3984 10.6953L25.3398 10.7188V10.7539L25.3984 10.8008H25.4453V10.7539L25.3984 10.6953ZM28.2109 10.8125H28.1758V10.8477H28.2109V10.8125ZM32.7109 3.80469L32.5586 3.59375C32.793 3.57031 32.9492 3.55859 33.0273 3.55859C33.9258 3.51172 34.4219 3.47266 34.5156 3.44141L35.1719 3.41797C35.2969 3.42578 35.3594 3.46094 35.3594 3.52344C35.3359 3.55469 35.3242 3.60547 35.3242 3.67578C35.3711 3.73047 35.3945 3.76562 35.3945 3.78125V4.14453L35.4062 4.15625C35.4062 4.32812 35.2344 4.62109 34.8906 5.03516C34.75 5.23047 34.625 5.45703 34.5156 5.71484C34.4844 5.74609 34.3867 5.92578 34.2227 6.25391C33.7852 6.92578 33.3906 7.60547 33.0391 8.29297C33.0078 8.30859 32.9062 8.46484 32.7344 8.76172C32.5469 8.98828 32.3047 9.36719 32.0078 9.89844V9.91016C32.0234 9.94922 32.0703 9.96875 32.1484 9.96875H32.1602L33.2852 9.89844C33.6445 9.89844 34.1172 9.93359 34.7031 10.0039C34.7734 10.0039 34.8477 9.76562 34.9258 9.28906L34.9961 9.37109C35.0273 9.29297 35.0781 9.23438 35.1484 9.19531C35.5703 9.26562 35.7695 9.26953 35.7461 9.20703C35.8242 9.21484 35.8906 9.76953 35.9453 10.8711C35.8438 10.8633 34.9883 10.8789 33.3789 10.918L31.7148 11.0586C31.6211 11.1055 31.5156 11.1289 31.3984 11.1289L31.1523 11.0352L30.8711 11.0703H30.8477C30.6367 11.0703 30.5156 11.0312 30.4844 10.9531L30.5078 10.8945V10.7539C30.5234 10.4727 30.8867 9.87109 31.5977 8.94922C31.6055 8.91016 31.8555 8.52344 32.3477 7.78906C32.9102 6.83594 33.4609 5.98438 34 5.23438C34.0703 5.13281 34.2422 4.92578 34.5156 4.61328L34.5273 4.55469C34.4883 4.53125 34.4062 4.51953 34.2812 4.51953H34.2578C33.9141 4.51953 33.3242 4.58594 32.4883 4.71875H32.4414L31.832 4.67188L31.7383 4.87109L31.8203 5.53906C31.8203 5.625 31.5625 5.69141 31.0469 5.73828C30.9453 5.52734 30.8945 5.33594 30.8945 5.16406V4.90625V4.74219L30.918 3.99219L30.8477 3.80469C30.8711 3.80469 30.9258 3.73828 31.0117 3.60547C31.0508 3.56641 31.1914 3.61328 31.4336 3.74609C31.3711 3.68359 31.3398 3.64453 31.3398 3.62891V3.60547L31.3516 3.59375L31.5391 3.73438C31.8516 3.70313 32.1211 3.66797 32.3477 3.62891L32.2656 3.65234V3.67578H32.3242C32.5977 3.81641 32.7344 3.86328 32.7344 3.81641L32.7109 3.80469ZM32.9219 3.73438C32.9219 3.76562 33.293 3.78906 34.0352 3.80469L34.3047 3.85156C34.375 3.82031 34.4453 3.80469 34.5156 3.80469H34.7266L35.0312 3.58203V3.55859C34.8906 3.60547 34.7461 3.62891 34.5977 3.62891C33.4805 3.65234 32.9219 3.6875 32.9219 3.73438ZM33.9531 5.83203V5.89062C34.0234 5.89062 34.2109 5.66797 34.5156 5.22266L35.0078 4.57812V4.55469H34.9609C34.8203 4.55469 34.6445 4.69922 34.4336 4.98828C34.3477 5.17578 34.1875 5.45703 33.9531 5.83203ZM34.7852 3.98047L34.6914 4.00391L33.918 3.99219C33.8008 4.05469 33.6641 4.10547 33.5078 4.14453V4.15625L33.6719 4.19141H33.7539L34.3516 4.08594C34.5312 4.07812 34.6797 4.05078 34.7969 4.00391V3.98047H34.7852ZM31.5273 4.03906H31.5156L31.5273 4.28516H31.5508C31.6133 4.22266 31.6602 4.19141 31.6914 4.19141L31.9844 4.20312H32.1836V4.16797C32.1836 4.12109 31.9648 4.07812 31.5273 4.03906ZM32.7812 8.17578V8.1875C32.8594 8.1875 32.9492 8.03516 33.0508 7.73047C33.1445 7.62891 33.1914 7.55469 33.1914 7.50781V7.48438C33.0742 7.48438 32.9375 7.71484 32.7812 8.17578ZM35.5703 10.707C35.5938 10.7773 35.6367 10.8125 35.6992 10.8125C35.7383 10.8125 35.7578 10.8008 35.7578 10.7773L35.7227 10.3438H35.6875C35.6406 10.3438 35.6016 10.4648 35.5703 10.707ZM32.7461 10.7305V10.7539L32.9219 10.7656H33.0039C33.2773 10.7656 33.4766 10.7539 33.6016 10.7305V10.6953L33.5312 10.6836H33.5195C33.1602 10.6836 32.9023 10.6992 32.7461 10.7305ZM32.0312 10.8125V10.8477L32.0547 10.8711H32.0781C32.2812 10.8711 32.4023 10.8398 32.4414 10.7773C32.4414 10.7695 32.375 10.7578 32.2422 10.7422C32.1016 10.7578 32.0312 10.7812 32.0312 10.8125ZM31.7148 9.67578L31.6914 9.73438V9.75781C31.8633 9.59375 32 9.41406 32.1016 9.21875V9.18359C31.9766 9.30078 31.8477 9.46484 31.7148 9.67578ZM34.1523 3.86328L33.5781 3.88672H33.5547V3.89844H34.375L34.3984 3.88672L34.1523 3.86328ZM32.1484 4.46094V4.51953H32.1602L32.5586 4.46094V4.44922L32.5234 4.41406H32.3477C32.2773 4.41406 32.2109 4.42969 32.1484 4.46094ZM30.707 10.8477L30.7422 10.8945H30.9297L30.9766 10.8477V10.8359L30.9297 10.7773H30.8477C30.7617 10.7773 30.7148 10.8008 30.707 10.8477ZM32.0312 3.89844L31.9961 3.93359V3.96875L32.1484 3.98047C32.2422 3.98047 32.2891 3.96484 32.2891 3.93359V3.92188L32.2188 3.89844H32.0312ZM31.0117 5.39844L31.0352 5.44531H31.0586C31.1133 5.41406 31.1562 5.35938 31.1875 5.28125L31.1641 5.24609H31.1172C31.0781 5.26172 31.043 5.3125 31.0117 5.39844ZM31.9375 10.1797H32.2305L32.2656 10.1445L32.2305 10.1211H32.1602C32.0117 10.1211 31.9375 10.1406 31.9375 10.1797ZM34.9844 10.6016L34.9141 10.6602L34.9375 10.6953H35.0078C35.0625 10.6953 35.0938 10.6797 35.1016 10.6484L35.0547 10.6016H34.9844ZM33.7422 10.0273L33.6953 10.0742C33.6953 10.0977 33.7109 10.1094 33.7422 10.1094C33.8359 10.0938 33.8828 10.0742 33.8828 10.0508L33.8711 10.0273H33.7422ZM35.0312 9.83984L34.9844 9.89844V9.94531L35.0078 9.96875H35.0195C35.0586 9.95312 35.0781 9.92188 35.0781 9.875V9.83984H35.0312ZM31.8438 10.8477L31.8086 10.8945V10.9414H31.9258L31.9609 10.8945L31.9375 10.8477H31.8438ZM34.6914 10.3906H34.5977V10.4023C34.5977 10.4258 34.6328 10.4453 34.7031 10.4609L34.7266 10.4375V10.4258L34.6914 10.3906ZM33.0859 3.94531H33.0273V3.96875C33.0352 3.99219 33.0664 4.00391 33.1211 4.00391V3.98047L33.0859 3.94531ZM32.5586 3.59375H32.5469L32.3594 3.62891C32.4297 3.60547 32.4961 3.59375 32.5586 3.59375ZM31.0469 4.69531H31.0117V4.73047L31.0469 4.75391H31.082V4.73047L31.0469 4.69531ZM34.1406 10.6602H34.0938V10.6953H34.1406V10.6602ZM39.0977 5.11719C39.4258 5.11719 39.8242 5.25781 40.293 5.53906C40.6914 5.83594 40.8906 6.03906 40.8906 6.14844C41.2031 6.80469 41.3594 7.19922 41.3594 7.33203L41.3711 7.42578C41.2539 7.69922 41.1953 7.88672 41.1953 7.98828L41.125 8H40.1289C40.0352 8 39.9219 8.01172 39.7891 8.03516C38.6641 7.94141 37.875 7.89453 37.4219 7.89453H37.1758C37.082 8.03516 37.0352 8.13672 37.0352 8.19922C37.0898 8.28516 37.1172 8.42188 37.1172 8.60938C37.1172 8.90625 37.1641 9.08203 37.2578 9.13672L37.2695 9.19531V9.20703L37.1992 9.17188V9.20703L37.3047 9.32422C37.3047 9.42578 37.375 9.55469 37.5156 9.71094C37.7734 10.1641 38.0547 10.4453 38.3594 10.5547C38.6172 10.6406 38.9102 10.6836 39.2383 10.6836C39.293 10.6836 39.4062 10.6328 39.5781 10.5312C39.7188 10.5 40.0156 10.2461 40.4688 9.76953V9.73438C40.4688 9.71875 40.4141 9.70312 40.3047 9.6875L40.2812 9.62891C40.4609 9.28516 40.6758 9.05859 40.9258 8.94922C40.9961 9.01953 41.1406 9.12891 41.3594 9.27734C41.5312 9.54297 41.7617 9.85547 42.0508 10.2148V10.2617C41.8008 10.5898 41.6211 10.7539 41.5117 10.7539H41.4648C41.4648 10.582 41.3594 10.4844 41.1484 10.4609C41.1094 10.4609 40.9375 10.5898 40.6328 10.8477C40.4531 10.9883 40.1445 11.1211 39.707 11.2461C39.1992 11.3477 38.8398 11.3984 38.6289 11.3984L37.9609 11.1641C37.5859 11.1641 37.2422 10.9609 36.9297 10.5547C36.7969 10.4141 36.6875 10.2461 36.6016 10.0508C36.6016 9.98828 36.5156 9.66406 36.3438 9.07812C36.2891 8.85156 36.2617 8.63281 36.2617 8.42188V8.41016C36.2617 7.37109 36.5742 6.46094 37.1992 5.67969C37.2773 5.48438 37.457 5.33984 37.7383 5.24609C37.9258 5.19141 38.1523 5.14844 38.418 5.11719C38.4883 5.08594 38.7148 5.08594 39.0977 5.11719ZM38.0195 5.36328V5.375H38.043C38.168 5.375 38.4023 5.33203 38.7461 5.24609C38.8164 5.23828 38.8516 5.21875 38.8516 5.1875L38.8164 5.15234H38.8047C38.5781 5.15234 38.3242 5.21484 38.043 5.33984L38.0195 5.36328ZM37.5508 5.5625V5.57422L37.5859 5.59766H37.5977C37.7539 5.55859 37.832 5.51953 37.832 5.48047V5.41016L37.7852 5.36328H37.7617C37.6211 5.41016 37.5508 5.47656 37.5508 5.5625ZM39.3555 5.44531H39.0039V5.46875C39.0039 5.5 39.1641 5.52344 39.4844 5.53906H39.4961V5.49219C39.4961 5.47656 39.4492 5.46094 39.3555 5.44531ZM38.5234 5.62109V5.63281C38.5234 5.66406 38.6836 5.70312 39.0039 5.75L39.0273 5.73828V5.69141C38.9648 5.60547 38.8594 5.5625 38.7109 5.5625H38.6758C38.5742 5.57031 38.5234 5.58984 38.5234 5.62109ZM39.2383 5.69141V5.70312C39.6836 5.96094 39.9219 6.08984 39.9531 6.08984H39.9648L40.082 6.04297L40.1523 6.06641L40.1641 6.04297V6.03125C40.1328 6.00781 40.0664 5.98438 39.9648 5.96094L39.7305 5.85547C39.668 5.72266 39.543 5.65625 39.3555 5.65625H39.3203C39.2656 5.66406 39.2383 5.67578 39.2383 5.69141ZM37.8438 6.03125C37.9219 5.96875 38.0781 5.90234 38.3125 5.83203V5.80859L38.3008 5.78516H38.1836C37.957 5.84766 37.8438 5.92969 37.8438 6.03125ZM37.2227 6.80469V6.83984C37.2227 6.92578 37.9336 7.02344 39.3555 7.13281L39.4727 7.16797L39.625 7.15625C39.9375 7.25781 40.1484 7.30859 40.2578 7.30859C40.2578 7.33203 40.2812 7.35156 40.3281 7.36719C40.375 7.29688 40.3984 7.23047 40.3984 7.16797V6.94531C40.3984 6.84375 40.2031 6.61719 39.8125 6.26562C39.6328 6.08594 39.4297 5.98438 39.2031 5.96094L38.8047 5.89062C38.1562 6.02344 37.7305 6.18359 37.5273 6.37109C37.4414 6.53516 37.3398 6.67969 37.2227 6.80469ZM37.3516 6.10156V6.125H37.375C37.4766 6.10156 37.5273 6.07422 37.5273 6.04297V6.03125H37.4688C37.4297 6.03125 37.3906 6.05469 37.3516 6.10156ZM40.1523 6.26562C40.168 6.32812 40.2031 6.35938 40.2578 6.35938H40.2812L40.3047 6.32422V6.25391L40.2578 6.19531C40.1875 6.19531 40.1523 6.21875 40.1523 6.26562ZM37.1289 6.32422L37.1055 6.35938V6.37109H37.1289L37.1758 6.33594V6.32422H37.1289ZM40.4453 6.41797H40.3984C40.4844 6.67578 40.5469 6.81641 40.5859 6.83984H40.6328L40.668 6.81641C40.6055 6.56641 40.5391 6.44141 40.4688 6.44141L40.4453 6.41797ZM37.2344 6.62891C37.2812 6.62109 37.3047 6.58984 37.3047 6.53516V6.52344C37.2578 6.53906 37.2344 6.57422 37.2344 6.62891ZM40.8438 6.94531L40.8086 6.96875V7.05078L40.8438 7.09766C40.875 7.08984 40.8906 7.0625 40.8906 7.01562V6.96875L40.8789 6.94531H40.8438ZM37.1055 7.10938V7.15625L37.1289 7.17969H37.1523C37.207 7.15625 37.2539 7.11328 37.293 7.05078V7.01562H37.2344C37.1875 7.01562 37.1445 7.04688 37.1055 7.10938ZM36.625 7.03906C36.5625 7.10156 36.5078 7.25781 36.4609 7.50781H36.4844C36.5312 7.50781 36.6016 7.37109 36.6953 7.09766C36.6797 7.05859 36.6562 7.03906 36.625 7.03906ZM37.8203 7.17969V7.21484C37.9688 7.31641 38.2383 7.36719 38.6289 7.36719H38.7344L38.8867 7.35547V7.30859C38.5664 7.23828 38.2109 7.19531 37.8203 7.17969ZM39.9648 7.48438H39.9297V7.51953H39.9648V7.48438ZM37.7031 7.57812V7.60156C37.8594 7.64062 38.2734 7.67969 38.9453 7.71875V7.73047V7.74219L38.6992 7.77734C38.6992 7.80078 38.8008 7.8125 39.0039 7.8125C39.332 7.8125 39.4961 7.79688 39.4961 7.76562C39.4961 7.6875 38.8984 7.625 37.7031 7.57812ZM36.5195 7.66016H36.4609V7.73047C36.4609 7.77734 36.4727 7.80078 36.4961 7.80078C36.5352 7.80078 36.5586 7.76172 36.5664 7.68359L36.5195 7.66016ZM37.4688 7.68359L37.4102 7.69531V7.76562H37.4688V7.71875V7.69531V7.68359ZM37.0938 7.77734V7.78906H37.1055L37.3047 7.76562V7.74219L37.2695 7.69531H37.2344C37.1641 7.69531 37.1172 7.72266 37.0938 7.77734ZM39.9414 7.80078C39.9414 7.83203 40.0117 7.84766 40.1523 7.84766L40.2578 7.83594V7.8125C40.2578 7.78125 40.1836 7.76562 40.0352 7.76562C39.9727 7.78125 39.9414 7.79297 39.9414 7.80078ZM36.4609 8.10547V8.14062V8.15234C36.4531 8.17578 36.4492 8.23047 36.4492 8.31641V8.36328C36.4492 8.50391 36.4883 8.62891 36.5664 8.73828H36.5781C36.5781 8.36328 36.5391 8.15234 36.4609 8.10547ZM36.6719 9.125H36.6367V9.14844L36.6719 9.17188H36.6953V9.14844L36.6719 9.125ZM36.7539 9.32422L36.7422 9.33594V9.35938C36.7734 9.48438 36.8203 9.54688 36.8828 9.54688V9.53516V9.51172C36.8828 9.44922 36.8398 9.38672 36.7539 9.32422ZM40.5742 9.42969L40.5977 9.46484H40.6562C40.7031 9.46484 40.7305 9.44922 40.7383 9.41797L40.6914 9.37109H40.6797C40.625 9.37109 40.5898 9.39062 40.5742 9.42969ZM40.3047 10.1094L40.3281 10.1211H40.3398C40.4258 10.1211 40.4805 10.0703 40.5039 9.96875V9.94531C40.418 9.94531 40.3516 10 40.3047 10.1094ZM41.125 10.0859L41.1367 10.0977H41.1719C41.2188 10.0664 41.2422 10.0234 41.2422 9.96875H41.207C41.1523 10 41.125 10.0391 41.125 10.0859ZM41.5352 9.96875H41.5234V9.99219C41.5469 10.0859 41.582 10.1328 41.6289 10.1328H41.6406L41.6641 10.1094V10.0977C41.6484 10.0117 41.6055 9.96875 41.5352 9.96875ZM40.8555 10.2148L40.8906 10.2383C41.0078 10.1992 41.0664 10.1484 41.0664 10.0859V10.0625H41.0547C40.9453 10.0625 40.8789 10.1133 40.8555 10.2148ZM39.9414 10.4727H39.9648C40.0273 10.4492 40.0625 10.4102 40.0703 10.3555L40.0586 10.3438C39.9805 10.3906 39.9414 10.4336 39.9414 10.4727ZM40.6328 10.5312H40.6797C40.7578 10.4609 40.7969 10.4102 40.7969 10.3789H40.7852C40.6836 10.4102 40.6328 10.4609 40.6328 10.5312ZM37.3047 10.6367H37.2695V10.6836C37.2852 10.7227 37.3516 10.7656 37.4688 10.8125L37.5156 10.8477C37.4297 10.7148 37.3594 10.6445 37.3047 10.6367ZM38.125 10.6836H38.1133V10.6953C38.1133 10.7266 38.1953 10.7617 38.3594 10.8008L38.3711 10.7891V10.7656C38.2695 10.7109 38.1875 10.6836 38.125 10.6836ZM38.8164 10.8125H38.7812V10.8477H38.8164V10.8125ZM40.0352 10.9883C40.1133 10.9883 40.1758 10.9297 40.2227 10.8125H40.1875C40.0859 10.8672 40.0352 10.9258 40.0352 10.9883ZM39.2148 11.1055L38.9688 11.082H38.9219C38.8516 11.082 38.8125 11.0977 38.8047 11.1289V11.1523L38.8516 11.1875H39.0625C39.3047 11.1875 39.5898 11.1445 39.918 11.0586C39.9023 11.0117 39.8555 10.9883 39.7773 10.9883H39.7188C39.5312 10.9883 39.3633 11.0273 39.2148 11.1055ZM42.2852 5.09375L42.3086 5.07031C42.4883 5.10156 42.6758 5.11719 42.8711 5.11719H43.832L43.8672 5.15234C43.8203 5.29297 43.7969 5.40234 43.7969 5.48047V5.67969C43.8281 5.89844 43.8906 6.00781 43.9844 6.00781C44.0312 5.92188 44.1875 5.83984 44.4531 5.76172C45.0859 5.48828 45.6016 5.35156 46 5.35156C46.2656 5.35156 46.5508 5.46875 46.8555 5.70312C47.082 5.78906 47.3008 5.97266 47.5117 6.25391C47.832 6.76172 47.9922 7.35938 47.9922 8.04688V8.14062L47.9102 8.98438L47.9922 9.59375L47.875 10.1445V10.168V10.2617L48.3203 10.2852H48.5195C48.6523 10.2852 48.7305 10.2969 48.7539 10.3203C48.7227 10.8906 48.6641 11.1758 48.5781 11.1758C48.4219 11.2695 48.2539 11.3164 48.0742 11.3164H47.8281C47.4531 11.3164 47.0586 11.3672 46.6445 11.4688C46.3711 11.4297 46.2344 11.293 46.2344 11.0586L46.2227 10.6367C46.2227 10.3789 46.2891 10.1914 46.4219 10.0742C46.4922 9.69141 46.5742 9.34375 46.668 9.03125L46.7383 7.98828C46.7617 7.98828 46.7734 7.90234 46.7734 7.73047C46.7734 7.51953 46.6055 7.21875 46.2695 6.82812C46.0117 6.71875 45.8633 6.66406 45.8242 6.66406C45.3711 6.66406 44.9648 6.85547 44.6055 7.23828C44.5742 7.23828 44.3828 7.42969 44.0312 7.8125C43.9219 7.89844 43.8672 8.16016 43.8672 8.59766C43.8828 9.38672 43.9102 9.78125 43.9492 9.78125C44.2617 9.83594 44.418 9.89453 44.418 9.95703V10.0039L44.1602 9.99219L43.9727 10.0039V10.0508C43.9727 10.082 44.1211 10.1211 44.418 10.168C44.4727 10.2227 44.5 10.3125 44.5 10.4375V10.4609C44.5 10.6484 44.4609 10.8477 44.3828 11.0586L43.0234 11.0703C42.8906 11.0703 42.793 11.0039 42.7305 10.8711C42.6992 10.7227 42.6641 10.4336 42.625 10.0039C42.625 9.96484 42.7422 9.92188 42.9766 9.875L43.0352 9.79297V9.78125C43.0352 9.73438 43.0039 9.66797 42.9414 9.58203V9.21875V8.55078L42.9883 7.47266C42.9883 6.73828 42.957 6.37109 42.8945 6.37109H42.8359L42.2852 6.44141C42.2305 6.44141 42.1562 6.39453 42.0625 6.30078V6.25391C42.1016 6.19141 42.1211 6.125 42.1211 6.05469L42.0977 5.62109L42.2852 5.09375ZM43.3047 5.30469L42.3438 5.45703V5.48047C42.3438 5.50391 42.4023 5.51953 42.5195 5.52734C43.0273 5.52734 43.2812 5.49219 43.2812 5.42188L43.3281 5.35156V5.32812H43.3047V5.30469ZM45.6367 5.52734V5.53906C45.6914 5.53906 45.7852 5.58594 45.918 5.67969L46.0469 5.71484L46.4219 5.70312L46.4336 5.67969V5.66797C46.4258 5.62109 46.3828 5.59766 46.3047 5.59766H46.2578L46.1406 5.62109C45.9688 5.51953 45.8438 5.46875 45.7656 5.46875C45.6953 5.46875 45.6523 5.48828 45.6367 5.52734ZM44.8398 5.73828V5.75L44.8633 5.78516C45.2305 5.69141 45.4141 5.62109 45.4141 5.57422H45.3906C45.2188 5.57422 45.0352 5.62891 44.8398 5.73828ZM42.5781 5.75L42.6133 5.78516H42.6367C42.7383 5.77734 42.7891 5.75391 42.7891 5.71484L42.7305 5.70312C42.6289 5.70312 42.5781 5.71875 42.5781 5.75ZM42.6836 5.98438V6.00781L42.9062 5.99609H42.9414C43.0195 5.99609 43.0664 6.01562 43.082 6.05469V6.08984C43.043 6.12891 43.0234 6.16797 43.0234 6.20703C43.0625 6.23828 43.1094 6.25391 43.1641 6.25391C43.1875 6.25391 43.1992 6.23828 43.1992 6.20703L43.2109 5.82031L43.1992 5.78516H43.1641C43.1172 5.81641 42.9609 5.87891 42.6953 5.97266L42.6836 5.98438ZM44.6289 5.85547L44.6406 5.86719V5.87891C44.7109 5.85547 44.7461 5.83594 44.7461 5.82031V5.79688H44.7227C44.6602 5.8125 44.6289 5.83203 44.6289 5.85547ZM42.2617 5.86719V5.87891C42.2617 5.90234 42.2812 5.92188 42.3203 5.9375C42.3828 5.9375 42.4531 5.90234 42.5312 5.83203V5.82031H42.3438C42.2891 5.82812 42.2617 5.84375 42.2617 5.86719ZM46.3047 6.05469C46.3047 6.08594 46.375 6.10938 46.5156 6.125C46.5469 6.10156 46.5625 6.07031 46.5625 6.03125C46.5625 5.99219 46.5 5.96094 46.375 5.9375C46.3281 5.96875 46.3047 6.00781 46.3047 6.05469ZM43.9375 6.14844V6.19531C44.0469 6.19531 44.1641 6.125 44.2891 5.98438V5.97266L44.2773 5.96094H44.2656C44.1719 5.96094 44.0625 6.02344 43.9375 6.14844ZM46.75 5.98438L46.7148 6.03125C46.7305 6.07031 46.7617 6.08984 46.8086 6.08984H46.8672L46.9258 6.04297V6.03125C46.918 6 46.8789 5.98438 46.8086 5.98438H46.75ZM45.4492 6.10156V6.125H45.5078C45.625 6.10938 45.6836 6.08594 45.6836 6.05469V6.03125H45.6016C45.5 6.03906 45.4492 6.0625 45.4492 6.10156ZM43.5273 6.04297H43.4688L43.4453 6.11328V6.32422C43.4453 6.41797 43.4297 6.48047 43.3984 6.51172V6.57031L43.4453 6.73438V6.82812C43.4453 6.89062 43.4648 6.93359 43.5039 6.95703C43.5117 6.95703 43.5352 6.86719 43.5742 6.6875C43.6836 6.60156 43.7383 6.53516 43.7383 6.48828C43.7383 6.44922 43.6953 6.36328 43.6094 6.23047C43.5859 6.10547 43.5586 6.04297 43.5273 6.04297ZM42.3555 6.23047V6.25391H42.4727L42.5195 6.20703V6.19531L42.4609 6.17188C42.3906 6.19531 42.3555 6.21484 42.3555 6.23047ZM46.5508 6.26562L46.4805 6.23047L46.457 6.25391V6.26562L46.5156 6.30078H46.5273L46.5508 6.26562ZM45.6484 6.34766L45.6719 6.37109H45.6836C45.8555 6.37109 45.9414 6.35547 45.9414 6.32422L45.8477 6.30078C45.7148 6.31641 45.6484 6.33203 45.6484 6.34766ZM43.9492 6.80469V6.83984C44.1523 6.81641 44.4336 6.64844 44.793 6.33594V6.32422H44.7227C44.6914 6.32422 44.5977 6.37891 44.4414 6.48828C44.1133 6.58984 43.9492 6.69531 43.9492 6.80469ZM46.75 6.34766H46.7383V6.38281C46.7383 6.40625 46.7891 6.51562 46.8906 6.71094C46.8906 6.77344 46.9062 6.80469 46.9375 6.80469L46.9844 6.75781V6.71094C46.9844 6.58594 46.9062 6.46484 46.75 6.34766ZM43.1055 6.48828L43.1289 6.52344H43.1523L43.1875 6.37109H43.1523C43.1289 6.37109 43.1133 6.41016 43.1055 6.48828ZM46.0586 6.57031V6.60547H46.3516L46.3984 6.57031V6.52344L46.3398 6.48828H46.2812C46.1328 6.51172 46.0586 6.53906 46.0586 6.57031ZM44.8984 6.75781C45.0703 6.72656 45.1562 6.68359 45.1562 6.62891L45.1211 6.60547H45.0859C44.9688 6.60547 44.9062 6.65625 44.8984 6.75781ZM44.5234 6.89844V6.92188H44.5586C44.6836 6.82031 44.7461 6.73438 44.7461 6.66406H44.7227V6.64062C44.6602 6.64062 44.5938 6.72656 44.5234 6.89844ZM43.6211 6.78125L43.6445 6.85156C43.6445 6.91406 43.6094 6.97656 43.5391 7.03906C43.5781 7.07812 43.5977 7.11719 43.5977 7.15625C43.5977 7.54688 43.625 7.74219 43.6797 7.74219H43.6914C43.7539 7.60156 43.7852 7.41797 43.7852 7.19141C43.7773 6.90234 43.7422 6.75 43.6797 6.73438H43.6562C43.6328 6.73438 43.6211 6.75 43.6211 6.78125ZM46.9258 6.93359V6.96875C47.0195 7.32031 47.0781 7.50391 47.1016 7.51953L47.125 7.4375V7.33203C47.0703 7.06641 47.0039 6.93359 46.9258 6.93359ZM47.4531 6.95703H47.4414C47.457 7.37109 47.4961 7.57812 47.5586 7.57812H47.582C47.543 7.16406 47.5 6.95703 47.4531 6.95703ZM44.3828 6.98047L44.3125 7.07422V7.09766L44.3242 7.12109H44.3828L44.418 6.98047H44.3828ZM44.0547 7.09766L44.0312 7.12109L44.0547 7.15625H44.1016V7.12109L44.0781 7.09766H44.0547ZM47.3711 8.48047V8.49219L47.4062 8.63281H47.4648C47.457 8.53125 47.4258 8.48047 47.3711 8.48047ZM46.9258 9.32422L46.9375 9.33594H46.9492C46.9727 9.33594 46.9844 9.29688 46.9844 9.21875V9.07812C46.9531 9.07812 46.9336 9.16016 46.9258 9.32422ZM46.8555 9.51172C46.9023 9.56641 46.9258 9.64062 46.9258 9.73438H46.9492L46.9844 9.59375V9.39453C46.8984 9.39453 46.8555 9.43359 46.8555 9.51172ZM47.3711 9.40625H47.3477V9.46484H47.3711V9.40625ZM47.6406 9.46484L47.6172 9.69922V9.99219H47.6289C47.7305 9.86719 47.7812 9.75 47.7812 9.64062V9.62891C47.7812 9.51953 47.7344 9.46484 47.6406 9.46484ZM47.3359 10.0039V10.0273H47.3477L47.3945 9.89844V9.875H47.3711C47.3477 9.875 47.3359 9.91797 47.3359 10.0039ZM42.8125 10.0508L42.7891 10.0977V10.1094C42.8047 10.25 42.8555 10.3203 42.9414 10.3203H43.0117L43.0469 10.2852V10.2617C42.9766 10.1758 42.9414 10.1055 42.9414 10.0508H42.8125ZM47.3711 10.2148H47.3242V10.2617L47.3711 10.3086L47.4062 10.2852V10.2617L47.3711 10.2148ZM48.0039 10.4844V10.5195C48.3555 10.5195 48.5312 10.4922 48.5312 10.4375V10.4141H48.3672C48.125 10.4219 48.0039 10.4453 48.0039 10.4844ZM43.3047 10.6016C43.3047 10.6406 43.4062 10.6602 43.6094 10.6602C44 10.6602 44.1953 10.6406 44.1953 10.6016C44.1953 10.5547 44.0625 10.5312 43.7969 10.5312C43.5 10.5312 43.3359 10.5547 43.3047 10.6016ZM46.4805 10.6367H46.4453V10.707L46.4805 10.7422H46.5156L46.5273 10.707V10.6953L46.4805 10.6367ZM48.1094 10.7305V10.7656C48.125 10.8047 48.1602 10.8242 48.2148 10.8242C48.3398 10.8242 48.4141 10.7969 48.4375 10.7422V10.707C48.4219 10.6602 48.3789 10.6367 48.3086 10.6367H48.25C48.1719 10.6367 48.125 10.668 48.1094 10.7305ZM46.7383 10.9414C46.7617 11.0039 46.8008 11.0352 46.8555 11.0352C47.2773 11.0273 47.4883 11 47.4883 10.9531C47.4336 10.8828 47.3359 10.8477 47.1953 10.8477C46.8906 10.8555 46.7383 10.8867 46.7383 10.9414ZM46.4453 11.1641L46.3984 11.2109V11.2344C46.3984 11.2891 46.5039 11.3164 46.7148 11.3164H46.7734L46.8672 11.293V11.2812C46.7891 11.2031 46.6641 11.1641 46.4922 11.1641H46.4453Z" fill="#172554"/>
<g clip-path="url(#clip0_12_9)">
<mask id="mask0_12_9" style="mask-type:luminance" maskUnits="userSpaceOnUse" x="0" y="2" width="22" height="22">
<path d="M22 2H0V24H22V2Z" fill="white"/>
</mask>
<g mask="url(#mask0_12_9)">
<path fill-rule="evenodd" clip-rule="evenodd" d="M10.4663 6.21245C9.75467 5.50083 8.60279 5.50083 7.89118 6.21245L7.33938 6.76428L6.23572 5.66063L6.78757 5.10882C7.49918 4.39721 7.49918 3.24531 6.78757 2.5337C6.07596 1.8221 4.92404 1.8221 4.21245 2.5337C3.50083 3.24531 3.50083 4.39721 4.21245 5.10882L4.76428 5.66063L3.66063 6.76428L3.10882 6.21245C2.39721 5.50083 1.24531 5.50083 0.533703 6.21245C-0.177901 6.92404 -0.177901 8.07596 0.533703 8.78757C1.24531 9.49918 2.39721 9.49918 3.10882 8.78757L3.66063 8.23572L4.76428 9.33938L4.21245 9.89118C3.50083 10.6028 3.50083 11.7547 4.21245 12.4663C4.92404 13.1779 6.07596 13.1779 6.78757 12.4663C7.49918 11.7547 7.49918 10.6028 6.78757 9.89118L6.23572 9.33938L7.33938 8.23572L7.89118 8.78757C8.60279 9.49918 9.75467 9.49918 10.4663 8.78757C11.1779 8.07596 11.1779 6.92404 10.4663 6.21245ZM6.0518 11.7306C5.74715 12.0352 5.25285 12.0352 4.9482 11.7306C4.64354 11.4259 4.64354 10.9316 4.9482 10.6269L5.5 10.0751L6.0518 10.6269C6.35646 10.9316 6.35646 11.4259 6.0518 11.7306ZM4.39637 7.5L5.5 6.39637L6.60365 7.5L5.5 8.60365L4.39637 7.5ZM4.9482 3.26945C5.25285 2.96481 5.74715 2.96481 6.0518 3.26945C6.35646 3.5741 6.35646 4.06843 6.0518 4.37307L5.5 4.92487L4.9482 4.37307C4.64354 4.06843 4.64354 3.5741 4.9482 3.26945ZM1.26945 6.9482C0.964806 7.25285 0.964806 7.74715 1.26945 8.0518C1.5741 8.35646 2.06843 8.35646 2.37307 8.0518L2.92487 7.5L2.37307 6.9482C2.06843 6.64354 1.5741 6.64354 1.26945 6.9482ZM9.73056 8.0518C9.4259 8.35646 8.93156 8.35646 8.6269 8.0518L8.07514 7.5L8.6269 6.9482C8.93156 6.64354 9.4259 6.64354 9.73056 6.9482C10.0352 7.25285 10.0352 7.74715 9.73056 8.0518Z" fill="#172554"/>
</g>
</g>
<defs>
<clipPath id="clip0_12_9">
<rect width="11" height="11" fill="white" transform="translate(0 2)"/>
</clipPath>
</defs>
</svg>
